{"glyphs":{"0":{"ha":1000,"x_min":62,"x_max":938,"o":"m 499 942 q 795 821 671 942 q 897 666 859 758 q 938 456 938 568 q 864 193 938 317 q 685 27 797 82 q 500 -16 597 -16 q 285 43 385 -16 q 118 226 178 106 q 62 463 62 337 q 136 732 62 610 q 315 899 202 844 q 499 942 400 941 m 499 849 q 258 744 355 849 q 155 463 155 634 q 258 182 155 292 q 500 77 355 77 q 742 182 645 77 q 844 458 844 292 q 742 744 844 635 q 499 849 644 848 z "},"1":{"ha":1000,"x_min":327,"x_max":627,"o":"m 481 759 q 382 718 425 724 q 358 710 363 715 q 349 682 353 705 l 327 682 l 327 856 l 349 856 q 356 820 353 825 q 373 814 359 814 q 444 838 405 814 q 484 882 484 862 q 446 903 484 895 l 446 926 l 627 926 l 627 903 q 592 885 601 897 q 583 846 583 873 l 583 80 q 592 41 583 52 q 627 23 601 30 l 627 0 l 438 0 l 438 23 q 473 41 464 29 q 481 80 481 52 l 481 759 z "},"2":{"ha":1000,"x_min":95,"x_max":905,"o":"m 234 639 l 95 774 l 111 789 q 151 772 137 772 q 170 785 158 772 q 534 942 318 942 q 771 867 678 942 q 867 671 867 791 q 776 475 867 553 q 567 350 713 422 q 414 270 456 295 q 331 206 372 245 q 250 88 273 153 l 825 88 q 866 97 854 88 q 884 132 878 106 l 905 132 l 905 -43 l 884 -43 q 866 -9 878 -18 q 825 0 854 0 l 189 0 q 149 -9 161 0 q 131 -43 137 -18 l 109 -43 q 130 84 110 29 q 198 199 151 140 q 324 317 250 266 q 532 432 398 369 q 649 494 612 471 q 714 547 686 517 q 761 664 761 597 q 707 786 761 738 q 520 850 635 850 q 289 764 390 850 q 231 692 231 714 q 249 654 231 677 l 234 639 z "},"3":{"ha":1000,"x_min":65,"x_max":907,"o":"m 201 655 l 78 795 l 94 810 q 126 793 116 793 q 175 823 134 793 q 341 914 262 886 q 513 942 420 942 q 773 864 671 942 q 841 784 817 831 q 866 687 866 737 q 713 500 866 555 q 832 444 788 481 q 907 275 907 379 q 802 68 907 147 q 508 -16 688 -16 q 324 8 411 -16 q 139 87 237 33 q 117 96 123 96 q 83 75 104 96 l 65 87 l 164 251 l 182 240 q 175 214 175 222 q 197 180 175 200 q 337 104 253 132 q 515 77 421 77 q 737 141 658 77 q 784 201 766 165 q 801 275 801 238 q 741 400 801 353 q 539 452 676 452 l 452 452 q 412 443 424 452 q 394 408 400 434 l 372 408 l 372 583 l 394 583 q 412 549 400 557 q 452 540 424 540 l 524 540 q 633 548 594 540 q 704 578 673 556 q 760 682 760 616 q 701 793 760 749 q 505 850 625 850 q 253 762 361 850 q 204 701 204 722 q 216 670 204 692 l 201 655 z "},"4":{"ha":1000,"x_min":67,"x_max":933,"o":"m 762 283 l 853 283 q 893 292 882 283 q 911 326 905 300 l 933 326 l 933 151 l 911 151 q 893 186 905 177 q 853 195 882 195 l 762 195 l 762 80 q 770 41 762 53 q 805 23 779 30 l 805 0 l 616 0 l 616 23 q 651 41 642 30 q 660 80 660 52 l 660 195 l 147 195 q 107 186 119 195 q 89 151 95 177 l 67 151 l 67 263 l 588 868 q 596 884 596 878 q 563 903 596 895 l 563 926 l 805 926 l 805 903 q 770 885 779 897 q 762 846 762 873 l 762 283 m 660 283 l 660 822 l 203 283 l 660 283 z "},"5":{"ha":1000,"x_min":85,"x_max":924,"o":"m 256 838 l 256 550 q 542 636 378 636 q 812 555 709 636 q 924 321 924 467 q 804 77 924 176 q 523 -16 693 -16 q 335 12 418 -16 q 157 109 252 41 q 133 120 142 120 q 102 105 122 120 l 85 117 l 197 264 l 214 251 q 203 218 203 230 q 262 157 203 199 q 523 77 374 77 q 760 165 677 77 q 818 319 818 227 q 750 478 818 416 q 539 553 669 553 q 326 495 416 553 q 277 448 277 464 q 291 418 277 434 l 278 401 l 95 543 l 110 558 l 116 558 q 147 570 140 558 q 154 623 154 582 l 154 846 q 145 886 154 874 q 111 904 136 898 l 111 926 l 787 926 q 827 935 815 926 q 845 970 839 943 l 867 970 l 867 795 l 845 795 q 827 829 839 820 q 787 838 815 838 l 256 838 z "},"6":{"ha":1000,"x_min":99,"x_max":911,"o":"m 894 872 l 806 707 l 788 719 q 793 747 793 738 q 749 798 793 770 q 556 854 665 854 q 321 762 418 854 q 204 464 204 652 q 205 421 204 450 q 554 611 332 611 q 809 525 709 611 q 911 304 911 437 q 809 79 911 170 q 532 -16 702 -16 q 215 115 334 -16 q 126 271 157 180 q 99 442 99 353 q 162 701 99 581 q 344 889 227 825 q 553 942 441 942 q 663 930 616 942 q 799 878 710 918 q 845 862 833 862 q 875 883 857 862 l 894 872 m 534 519 q 342 456 424 519 q 276 381 300 423 q 252 297 252 338 q 271 220 252 261 q 323 149 291 180 q 527 77 401 77 q 739 150 655 77 q 804 292 804 206 q 731 454 804 393 q 534 519 656 518 z "},"7":{"ha":1000,"x_min":63,"x_max":882,"o":"m 767 833 l 143 833 q 103 824 115 833 q 85 790 91 816 l 63 790 l 63 970 l 85 970 q 103 935 91 943 q 143 926 115 926 l 802 926 q 842 935 830 926 q 860 970 854 943 l 882 970 l 882 843 l 444 62 q 435 41 435 48 q 477 23 435 25 l 477 0 l 269 0 l 269 23 q 306 33 293 26 q 328 56 319 40 l 767 833 z "},"8":{"ha":1000,"x_min":74,"x_max":926,"o":"m 261 495 q 164 549 198 517 q 102 692 102 608 q 159 834 102 773 q 500 942 259 942 q 783 880 675 942 q 870 795 838 848 q 897 692 897 749 q 857 572 897 622 q 739 495 817 522 q 836 445 798 475 q 926 267 926 374 q 881 129 926 195 q 500 -16 783 -16 q 171 73 286 -16 q 100 160 126 108 q 74 267 74 213 q 123 406 74 346 q 261 495 172 465 m 498 849 q 273 802 355 849 q 204 692 204 762 q 273 583 204 623 q 500 535 355 535 q 727 583 645 535 q 795 690 795 623 q 718 807 795 766 q 498 849 640 848 m 498 452 q 255 395 342 452 q 180 264 180 347 q 255 134 180 182 q 500 77 342 77 q 745 134 657 77 q 799 191 779 156 q 819 262 819 225 q 745 395 819 347 q 498 452 658 451 z "},"9":{"ha":1000,"x_min":79,"x_max":911,"o":"m 79 82 l 181 237 l 199 224 q 191 195 191 205 q 215 161 191 180 q 461 76 334 76 q 687 161 594 76 q 803 469 803 268 q 802 504 803 484 q 461 320 696 320 q 204 409 304 320 q 103 627 103 497 q 163 803 103 726 q 320 913 220 876 q 486 942 397 942 q 728 871 623 942 q 874 686 827 806 q 911 481 911 590 q 859 233 911 349 q 677 36 799 102 q 461 -16 581 -16 q 320 3 385 -16 q 170 73 256 23 q 132 91 138 91 q 97 69 117 91 l 79 82 m 481 849 q 274 772 356 849 q 209 623 209 711 q 279 477 209 536 q 475 412 355 412 q 692 485 606 412 q 760 625 760 543 q 707 758 760 701 q 481 849 623 848 z "}," ":{"ha":347,"x_min":0,"x_max":0,"o":""},"!":{"ha":474,"x_min":139,"x_max":335,"o":"m 296 259 l 178 259 l 178 277 q 189 280 186 279 q 215 301 216 286 l 214 308 l 214 318 l 178 876 q 171 899 177 894 q 139 907 165 904 l 139 926 l 335 926 l 335 907 q 323 905 326 906 q 296 876 298 903 l 260 318 l 260 308 l 259 301 q 264 288 259 291 q 296 277 269 284 l 296 259 m 237 132 q 289 110 268 132 q 311 57 311 88 q 289 5 311 27 q 237 -16 267 -16 q 184 5 206 -16 q 163 58 163 27 q 184 110 163 88 q 237 132 205 131 z "},"\"":{"ha":726,"x_min":83,"x_max":642,"o":"m 240 572 l 123 572 l 123 591 q 134 592 131 592 q 159 606 159 595 q 159 612 159 608 l 124 881 q 117 901 122 898 q 83 907 111 905 l 83 926 l 279 926 l 279 907 q 268 906 271 906 q 245 901 250 905 q 239 881 241 897 l 204 612 q 208 598 203 601 q 240 591 213 595 l 240 572 m 603 572 l 486 572 l 486 591 q 496 592 494 592 q 522 606 522 595 q 522 612 522 607 l 487 881 q 479 901 484 898 q 446 907 474 905 l 446 926 l 642 926 l 642 907 q 631 906 633 906 q 608 901 613 905 q 602 881 604 897 l 567 612 q 571 598 566 601 q 603 591 576 595 l 603 572 z "},"#":{"ha":1065,"x_min":56,"x_max":1008,"o":"m 258 234 l 138 234 q 103 224 116 234 q 79 191 90 215 l 56 191 l 90 366 l 113 366 q 124 332 115 341 q 155 322 133 322 l 275 322 l 330 604 l 210 604 q 175 595 188 604 q 151 561 162 585 l 128 561 l 162 736 l 184 736 q 196 702 186 711 q 227 692 205 692 l 348 692 l 378 852 q 379 863 379 855 q 372 886 379 879 q 345 901 366 894 l 349 926 l 524 926 l 519 901 q 482 883 493 893 q 467 852 471 872 l 435 692 l 718 692 l 749 852 q 749 863 749 855 q 743 886 749 879 q 715 901 736 894 l 720 926 l 895 926 l 890 901 q 852 883 863 893 q 837 852 841 872 l 806 692 l 927 692 q 961 702 948 692 q 986 736 975 711 l 1008 736 l 974 561 l 951 561 q 940 595 949 585 q 909 604 931 604 l 789 604 l 734 322 l 854 322 q 889 332 876 322 q 913 366 902 341 l 936 366 l 902 191 l 880 191 q 868 224 878 215 q 838 234 859 234 l 717 234 l 686 74 q 685 62 685 69 q 692 39 685 46 q 720 25 699 31 l 715 0 l 540 0 l 545 25 q 582 42 571 32 q 597 74 593 53 l 629 234 l 347 234 l 315 74 q 315 62 315 69 q 321 39 315 46 q 349 25 328 31 l 344 0 l 170 0 l 174 25 q 212 42 200 32 q 227 74 223 53 l 258 234 m 363 322 l 646 322 l 701 604 l 418 604 l 363 322 z "},"$":{"ha":1000,"x_min":83,"x_max":917,"o":"m 544 837 l 544 523 l 593 517 q 738 496 696 506 q 814 469 781 487 q 917 281 917 413 q 817 78 917 154 q 544 -2 717 2 l 544 -87 q 553 -118 544 -107 q 587 -136 563 -129 l 587 -157 l 422 -157 l 422 -136 q 456 -118 447 -129 q 466 -87 466 -107 l 466 0 q 201 73 326 10 q 128 104 138 104 q 100 81 119 104 l 83 92 l 174 255 l 191 245 q 179 212 179 221 q 293 137 179 186 q 466 90 380 98 l 466 427 q 268 467 330 444 q 161 547 195 494 q 127 661 127 598 q 217 842 127 772 q 466 926 306 912 l 466 1012 q 456 1044 466 1033 q 422 1061 447 1055 l 422 1083 l 587 1083 l 587 1061 q 553 1044 563 1055 q 544 1012 544 1033 l 544 928 q 825 864 686 922 q 850 856 846 856 q 880 880 861 856 l 897 872 l 810 705 l 793 715 q 803 748 803 741 q 713 803 803 771 q 544 837 640 829 m 466 837 q 340 807 392 831 q 231 667 231 757 q 344 549 231 578 q 466 532 368 543 l 466 837 m 544 88 q 726 132 663 94 q 813 273 813 187 q 723 390 813 359 q 544 417 692 401 l 544 88 z "},"%":{"ha":1249,"x_min":46,"x_max":1202,"o":"m 286 934 q 449 873 381 934 q 528 690 528 802 q 507 593 528 641 q 449 513 486 546 q 287 452 381 452 q 125 513 193 452 q 46 693 46 584 q 67 793 46 745 q 125 873 88 841 q 286 934 193 932 m 286 879 q 166 828 215 879 q 115 693 115 775 q 164 560 115 612 q 287 507 212 507 q 408 558 359 507 q 458 690 458 611 q 411 826 458 774 q 286 879 363 878 m 385 19 l 385 0 l 194 0 l 194 19 q 307 103 241 22 l 863 823 q 902 884 902 873 q 870 907 902 902 l 870 926 l 1055 926 l 1055 907 q 942 823 1008 904 l 391 103 q 352 41 352 52 q 385 19 352 24 m 961 473 q 1124 412 1056 473 q 1202 229 1202 342 q 1181 133 1202 180 q 1124 53 1160 85 q 962 -8 1056 -8 q 800 53 867 -8 q 721 233 721 123 q 742 332 721 284 q 800 412 764 380 q 961 473 867 472 m 961 418 q 841 368 890 418 q 790 233 790 315 q 839 99 790 152 q 962 47 887 47 q 1082 98 1034 47 q 1133 230 1133 151 q 1085 366 1133 313 q 961 418 1038 418 z "},"&":{"ha":1036,"x_min":63,"x_max":999,"o":"m 999 599 l 999 433 l 981 433 q 964 467 979 467 q 888 408 936 467 q 795 258 852 366 q 882 134 832 170 q 958 103 924 103 q 973 107 970 103 q 981 138 976 112 l 999 138 l 999 0 q 826 39 889 2 q 728 159 763 76 q 401 -16 621 -16 q 150 73 243 -16 q 63 271 63 157 q 91 385 63 330 q 170 477 119 439 q 301 538 218 513 q 183 710 183 597 q 265 881 183 815 q 460 942 340 942 q 682 861 604 942 q 743 708 743 797 q 706 592 743 642 q 597 517 668 543 q 749 350 707 466 q 999 599 847 580 m 456 859 q 340 826 386 859 q 285 712 285 786 q 334 609 285 648 q 472 566 390 566 q 597 607 549 566 q 642 704 642 646 q 600 806 642 765 q 456 859 547 858 m 413 476 q 231 413 306 476 q 170 279 170 361 q 222 146 170 198 q 408 76 292 76 q 601 150 517 76 q 667 260 667 207 q 645 335 667 293 q 591 409 624 378 q 413 476 523 475 z "},"'":{"ha":363,"x_min":83,"x_max":279,"o":"m 240 572 l 123 572 l 123 591 q 134 592 131 592 q 159 606 159 595 q 159 612 159 608 l 124 881 q 117 901 122 898 q 83 907 111 905 l 83 926 l 279 926 l 279 907 q 268 906 271 906 q 245 901 250 905 q 239 881 241 897 l 204 612 q 208 598 203 601 q 240 591 213 595 l 240 572 z "},"(":{"ha":440,"x_min":93,"x_max":440,"o":"m 404 1037 l 440 997 q 296 816 365 937 q 201 463 201 652 q 309 87 201 262 q 440 -71 372 -18 l 404 -111 q 93 463 93 134 q 404 1037 93 791 z "},")":{"ha":440,"x_min":0,"x_max":347,"o":"m 37 1037 q 347 463 347 791 q 37 -111 347 134 l 0 -71 q 144 109 76 -11 q 239 463 239 273 q 132 838 239 663 q 0 997 67 943 l 37 1037 z "},"*":{"ha":582,"x_min":83,"x_max":499,"o":"m 216 1019 l 366 1019 l 366 1000 q 333 968 341 994 q 324 870 325 943 q 413 908 391 894 q 435 943 435 922 q 435 950 435 945 l 453 956 l 499 814 l 481 808 q 444 829 468 829 q 345 808 414 829 q 402 739 384 756 q 436 722 420 722 q 455 727 443 722 l 466 712 l 345 624 l 334 640 q 346 665 346 654 q 292 769 346 691 q 237 665 237 690 q 249 639 237 654 l 238 624 l 117 712 l 128 727 q 147 722 140 722 q 238 808 175 722 q 138 829 166 829 q 101 808 116 829 l 83 813 l 130 956 l 148 950 q 147 942 147 945 q 171 907 147 922 q 258 870 194 892 q 249 968 258 943 q 216 1000 241 994 l 216 1019 z "},"+":{"ha":1065,"x_min":161,"x_max":904,"o":"m 161 376 l 161 551 l 184 551 q 221 516 199 526 q 287 507 243 507 l 489 507 l 489 707 q 479 773 489 751 q 445 810 469 795 l 445 834 l 620 834 l 620 810 q 586 773 595 795 q 577 707 577 751 l 577 507 l 777 507 q 843 517 821 507 q 880 551 866 526 l 904 551 l 904 376 l 880 376 q 843 410 865 401 q 777 419 821 419 l 577 419 l 577 217 q 586 152 577 174 q 620 115 595 130 l 620 92 l 445 92 l 445 115 q 479 152 470 130 q 489 218 489 174 l 489 419 l 286 419 q 221 410 243 419 q 184 376 199 401 l 161 376 z "},",":{"ha":389,"x_min":120,"x_max":269,"o":"m 146 -157 l 125 -134 q 191 -79 170 -106 q 218 -12 211 -52 q 189 -16 199 -16 q 139 4 158 -16 q 120 56 120 24 q 140 111 120 90 q 191 132 160 132 q 248 103 227 132 q 269 25 269 74 q 240 -78 269 -35 q 146 -157 211 -121 z "},"-":{"ha":276,"x_min":0,"x_max":276,"o":"m 276 467 l 276 292 l 260 292 q 247 327 254 317 q 224 336 239 336 l 52 336 q 29 327 37 336 q 16 292 21 317 l 0 292 l 0 467 l 16 467 q 29 433 21 442 q 52 424 37 424 l 224 424 q 247 433 239 424 q 260 467 255 443 l 276 467 z "},".":{"ha":389,"x_min":120,"x_max":268,"o":"m 194 132 q 247 110 225 132 q 268 57 268 88 q 246 5 268 27 q 194 -16 224 -16 q 142 6 163 -16 q 120 58 120 28 q 141 110 120 88 q 194 132 163 131 z "},"/":{"ha":990,"x_min":65,"x_max":926,"o":"m 279 19 l 279 0 l 65 0 l 65 19 q 176 103 112 22 l 714 823 q 751 884 751 872 q 718 907 751 902 l 718 926 l 926 926 l 926 907 q 816 823 880 905 l 283 103 q 246 42 246 53 q 279 19 246 24 z "},":":{"ha":389,"x_min":120,"x_max":268,"o":"m 194 132 q 247 110 225 132 q 268 57 268 88 q 246 5 268 27 q 194 -16 224 -16 q 142 6 163 -16 q 120 58 120 28 q 141 110 120 88 q 194 132 163 131 m 194 775 q 247 753 225 775 q 268 701 268 732 q 246 649 268 671 q 194 627 224 627 q 142 649 163 627 q 120 701 120 671 q 141 753 120 732 q 194 775 163 774 z "},";":{"ha":389,"x_min":120,"x_max":269,"o":"m 146 -157 l 125 -134 q 191 -79 170 -106 q 218 -12 211 -52 q 189 -16 199 -16 q 139 4 158 -16 q 120 56 120 24 q 140 111 120 90 q 191 132 160 132 q 248 103 227 132 q 269 25 269 74 q 240 -78 269 -35 q 146 -157 211 -121 m 194 775 q 247 753 225 775 q 268 701 268 732 q 246 649 268 671 q 194 627 224 627 q 142 649 163 627 q 120 701 120 671 q 141 753 120 732 q 194 775 163 774 z "},"<":{"ha":694,"x_min":46,"x_max":648,"o":"m 648 791 l 648 687 l 159 463 l 648 239 l 648 134 l 46 418 l 46 509 l 648 791 z "},"=":{"ha":1065,"x_min":161,"x_max":904,"o":"m 161 514 l 161 689 l 184 689 q 221 655 199 664 q 287 646 243 646 l 777 646 q 843 655 821 646 q 880 689 865 665 l 904 689 l 904 514 l 880 514 q 843 548 865 539 q 777 557 821 557 l 287 557 q 221 548 243 557 q 184 514 199 539 l 161 514 m 161 237 l 161 412 l 184 412 q 221 377 199 387 q 287 368 243 368 l 777 368 q 843 378 821 368 q 880 412 866 387 l 904 412 l 904 237 l 880 237 q 843 271 865 262 q 777 280 821 280 l 287 280 q 221 271 243 280 q 184 237 199 262 l 161 237 z "},">":{"ha":694,"x_min":47,"x_max":648,"o":"m 47 791 l 648 509 l 648 418 l 47 134 l 47 239 l 536 463 l 47 687 l 47 791 z "},"?":{"ha":713,"x_min":46,"x_max":611,"o":"m 435 264 l 271 264 l 271 283 q 302 292 294 284 q 311 326 309 300 q 340 453 313 399 q 369 502 355 483 q 454 606 382 520 q 505 719 505 667 q 478 802 505 768 q 354 859 433 859 q 208 798 273 859 q 173 738 173 765 q 187 707 173 728 l 172 692 l 46 827 l 62 842 q 79 832 72 836 q 92 827 87 827 q 115 840 99 827 q 368 942 236 942 q 549 873 479 942 q 611 724 611 813 q 572 605 611 659 q 480 505 553 578 q 420 414 443 467 q 397 316 397 362 q 404 293 397 299 q 435 283 412 286 l 435 264 m 357 130 q 410 108 389 130 q 431 56 431 87 q 409 5 431 26 q 357 -16 387 -16 q 306 5 328 -16 q 285 57 285 27 q 306 108 285 87 q 357 130 327 129 z "},"@":{"ha":1150,"x_min":58,"x_max":1087,"o":"m 869 656 l 791 345 q 789 331 789 339 q 832 301 789 301 q 924 334 873 301 q 975 406 956 355 q 994 519 994 456 q 899 745 994 652 q 750 840 836 807 q 595 868 673 868 q 366 806 476 868 q 195 640 251 742 q 151 458 151 559 q 265 174 151 288 q 401 86 325 114 q 581 58 478 58 q 702 71 638 58 q 808 102 766 83 q 825 131 825 111 q 824 142 825 134 l 838 146 l 882 -3 l 867 -7 q 830 26 850 26 q 743 4 822 26 q 564 -16 667 -16 q 220 98 352 -16 q 93 281 137 170 q 58 460 58 370 q 138 719 58 602 q 379 902 222 844 q 604 942 487 942 q 956 820 814 942 q 1087 530 1087 707 q 993 294 1087 370 q 865 248 935 248 q 782 264 812 248 q 724 323 753 279 q 616 271 680 290 q 486 251 553 251 q 351 292 402 251 q 294 416 294 338 q 357 574 294 504 q 463 648 399 621 q 596 674 526 674 q 762 608 692 674 l 776 656 l 869 656 m 585 606 q 455 563 510 606 q 386 433 389 513 q 419 351 384 382 q 512 319 454 319 q 668 367 607 319 q 729 477 729 414 q 692 572 729 539 q 585 606 655 605 z "},"A":{"ha":1024,"x_min":4,"x_max":1029,"o":"m 759 260 l 263 260 l 182 84 q 170 49 170 59 q 210 22 170 28 l 210 0 l 4 0 l 4 22 q 46 42 32 26 q 85 110 61 58 l 424 842 q 436 878 436 868 q 403 904 436 895 l 403 926 l 628 926 l 628 904 q 595 876 595 893 q 607 842 595 868 l 932 136 q 979 45 968 58 q 1029 22 991 31 l 1029 0 l 810 0 l 810 22 q 849 52 849 27 q 834 94 849 62 l 759 260 m 719 348 l 511 805 l 303 348 l 719 348 z "},"B":{"ha":1081,"x_min":102,"x_max":1006,"o":"m 845 481 q 1006 257 1006 427 q 963 113 1006 175 q 848 25 920 51 q 641 0 775 0 l 102 0 l 102 22 q 136 40 127 28 q 145 80 145 52 l 145 846 q 136 886 145 874 q 102 904 127 898 l 102 926 l 654 926 q 788 913 735 926 q 882 870 842 900 q 976 677 976 803 q 845 481 976 544 m 252 526 l 608 526 q 722 531 684 526 q 791 549 760 536 q 852 599 831 565 q 874 677 874 633 q 836 779 874 737 q 754 825 804 812 q 602 838 705 838 l 252 838 l 252 526 m 252 88 l 623 88 q 742 93 703 88 q 814 113 781 98 q 877 170 854 132 q 900 258 900 208 q 860 372 900 325 q 775 424 827 410 q 616 438 724 438 l 252 438 l 252 88 z "},"C":{"ha":1177,"x_min":79,"x_max":1103,"o":"m 1078 846 l 977 678 l 959 689 q 965 721 965 709 q 878 791 965 749 q 618 849 759 849 q 310 744 428 849 q 190 467 190 637 q 315 185 190 297 q 612 76 435 76 q 918 177 785 76 q 977 241 977 222 q 966 273 977 251 l 982 286 l 1103 139 l 1086 125 q 1055 142 1067 142 q 1029 128 1047 142 q 925 58 966 81 q 836 18 884 35 q 613 -16 734 -16 q 233 114 379 -16 q 79 462 79 250 q 175 751 79 629 q 626 942 326 942 q 1010 837 825 942 q 1027 830 1023 830 q 1059 856 1036 830 l 1078 846 z "},"D":{"ha":1143,"x_min":102,"x_max":1065,"o":"m 145 71 l 145 855 q 136 886 145 876 q 102 904 126 897 l 102 926 l 590 926 q 844 880 756 926 q 1014 702 956 822 q 1065 463 1065 597 q 996 191 1065 305 q 840 44 935 89 q 590 0 745 0 l 102 0 l 102 22 q 136 39 126 28 q 145 71 145 50 m 252 88 l 586 88 q 804 134 733 88 q 928 300 888 188 q 954 463 954 374 q 871 730 954 625 q 761 813 826 789 q 586 838 696 838 l 252 838 l 252 88 z "},"E":{"ha":1000,"x_min":102,"x_max":925,"o":"m 252 432 l 252 88 l 845 88 q 885 97 873 88 q 903 132 897 106 l 925 132 l 925 -43 l 904 -43 q 885 -9 897 -18 q 845 0 873 0 l 102 0 l 102 22 q 137 40 128 28 q 145 80 145 52 l 145 846 q 136 886 145 874 q 102 904 127 897 l 102 926 l 836 926 q 876 935 865 926 q 895 970 888 943 l 916 970 l 916 795 l 895 795 q 877 829 888 820 q 836 838 865 838 l 252 838 l 252 520 l 635 520 q 675 529 663 520 q 693 564 687 538 l 715 564 l 715 389 l 693 389 q 675 423 687 414 q 635 432 663 432 l 252 432 z "},"F":{"ha":990,"x_min":102,"x_max":935,"o":"m 252 838 l 252 522 l 653 522 q 693 530 682 522 q 711 565 705 539 l 733 565 l 733 390 l 711 390 q 693 425 705 416 q 653 433 682 433 l 252 433 l 252 80 q 260 40 252 52 q 295 22 269 28 l 295 0 l 102 0 l 102 22 q 136 40 127 28 q 145 80 145 52 l 145 846 q 136 886 145 874 q 102 904 127 898 l 102 926 l 854 926 q 895 935 883 926 q 913 970 907 943 l 935 970 l 935 795 l 913 795 q 895 829 907 821 q 854 838 883 838 l 252 838 z "},"G":{"ha":1166,"x_min":79,"x_max":1093,"o":"m 1078 837 l 975 671 l 957 684 q 969 714 969 704 q 897 774 969 735 q 610 850 757 850 q 323 754 440 850 q 190 461 190 646 q 317 175 190 281 q 617 77 435 77 q 801 107 713 77 q 947 191 888 137 l 947 362 l 728 362 q 688 353 700 362 q 670 319 676 345 l 648 319 l 648 494 l 670 494 q 688 459 676 468 q 728 450 700 450 l 1093 450 l 1093 429 q 1058 410 1067 422 q 1049 370 1049 399 l 1049 250 q 1058 210 1049 222 q 1093 192 1067 199 l 1093 173 q 948 66 1016 104 q 612 -16 801 -16 q 237 109 380 -16 q 125 257 167 171 q 79 465 79 355 q 170 743 79 621 q 398 906 255 854 q 615 942 499 942 q 804 918 717 942 q 991 837 890 893 q 1027 821 1020 821 q 1060 849 1038 821 l 1078 837 z "},"H":{"ha":1137,"x_min":102,"x_max":1036,"o":"m 886 432 l 252 432 l 252 80 q 260 40 252 52 q 295 22 269 28 l 295 0 l 102 0 l 102 22 q 137 40 128 28 q 145 80 145 52 l 145 846 q 136 886 145 874 q 102 904 127 898 l 102 926 l 295 926 l 295 904 q 260 886 269 897 q 252 846 252 874 l 252 520 l 886 520 l 886 846 q 877 886 886 874 q 842 904 868 898 l 842 926 l 1036 926 l 1036 904 q 1001 886 1010 897 q 992 846 992 874 l 992 80 q 1001 40 992 52 q 1036 22 1010 28 l 1036 0 l 842 0 l 842 22 q 877 40 868 28 q 886 80 886 52 l 886 432 z "},"I":{"ha":397,"x_min":102,"x_max":295,"o":"m 145 80 l 145 846 q 136 886 145 874 q 102 904 127 898 l 102 926 l 295 926 l 295 904 q 260 886 269 897 q 252 846 252 874 l 252 80 q 260 40 252 52 q 295 22 269 28 l 295 0 l 102 0 l 102 22 q 137 40 128 28 q 145 80 145 52 z "},"J":{"ha":808,"x_min":5,"x_max":725,"o":"m 5 41 l 85 214 l 104 204 q 97 174 97 182 q 150 127 97 154 q 357 76 250 76 q 495 107 439 76 q 566 193 551 138 q 575 344 575 223 l 575 846 q 566 886 575 874 q 532 904 557 898 l 532 926 l 725 926 l 725 904 q 690 885 699 897 q 682 846 682 873 l 682 320 q 676 195 682 231 q 652 123 671 158 q 527 16 614 52 q 357 -16 452 -16 q 236 -4 286 -16 q 88 47 185 7 q 57 57 66 57 q 24 32 46 57 l 5 41 z "},"K":{"ha":1036,"x_min":102,"x_max":1021,"o":"m 252 355 l 252 80 q 260 40 252 52 q 295 22 269 28 l 295 0 l 102 0 l 102 22 q 136 40 127 28 q 145 80 145 52 l 145 846 q 136 886 145 874 q 102 904 127 898 l 102 926 l 295 926 l 295 904 q 260 886 269 897 q 252 846 252 874 l 252 461 l 751 852 q 777 885 777 872 q 751 904 777 900 l 751 926 l 996 926 l 996 904 q 916 871 956 901 l 541 578 l 954 55 q 982 30 969 36 q 1021 22 995 23 l 1021 0 l 795 0 l 795 22 q 825 41 825 28 q 795 88 825 50 l 460 516 l 252 355 z "},"L":{"ha":942,"x_min":102,"x_max":923,"o":"m 252 88 l 843 88 q 883 97 871 88 q 901 132 895 106 l 923 132 l 923 -43 l 901 -43 q 883 -9 895 -18 q 843 0 871 0 l 102 0 l 102 22 q 137 40 128 28 q 145 80 145 52 l 145 846 q 136 886 145 874 q 102 904 127 897 l 102 926 l 295 926 l 295 904 q 260 886 269 897 q 252 846 252 874 l 252 88 z "},"M":{"ha":1275,"x_min":102,"x_max":1173,"o":"m 631 0 l 242 778 l 242 80 q 251 40 242 52 q 286 22 260 28 l 286 0 l 102 0 l 102 22 q 136 40 127 28 q 145 80 145 52 l 145 846 q 136 886 145 874 q 102 904 127 898 l 102 926 l 342 926 l 342 904 q 309 876 309 892 q 331 823 309 867 l 639 212 l 948 829 q 964 875 964 861 q 931 904 964 892 l 931 926 l 1173 926 l 1173 904 q 1139 886 1147 897 q 1130 846 1130 874 l 1130 80 q 1139 40 1130 52 q 1173 22 1147 28 l 1173 0 l 980 0 l 980 22 q 1015 40 1006 28 q 1023 80 1023 52 l 1023 778 l 631 0 z "},"N":{"ha":1168,"x_min":102,"x_max":1065,"o":"m 242 808 l 242 80 q 251 40 242 52 q 286 22 260 28 l 286 0 l 102 0 l 102 22 q 137 40 128 28 q 145 80 145 52 l 145 846 q 136 886 145 874 q 102 904 127 898 l 102 926 l 368 926 l 368 904 q 336 873 336 893 q 368 823 336 860 l 925 170 l 925 846 q 916 886 925 874 q 882 904 907 898 l 882 926 l 1065 926 l 1065 904 q 1031 886 1040 898 q 1022 846 1022 874 l 1022 80 q 1031 40 1022 52 q 1065 22 1040 28 l 1065 0 l 852 0 l 852 22 q 883 50 883 30 q 854 98 883 64 l 242 808 z "},"O":{"ha":1265,"x_min":79,"x_max":1186,"o":"m 631 942 q 1025 814 876 942 q 1152 640 1109 743 q 1186 457 1186 555 q 1111 210 1186 325 q 881 26 1028 82 q 632 -16 771 -16 q 239 112 389 -16 q 113 286 156 184 q 79 463 79 370 q 153 717 79 601 q 384 900 235 842 q 631 942 488 940 m 631 849 q 301 732 422 849 q 190 463 190 625 q 301 193 190 300 q 632 77 422 77 q 964 193 843 77 q 1075 458 1075 300 q 964 732 1075 628 q 822 820 898 795 q 631 849 738 848 z "},"P":{"ha":1003,"x_min":102,"x_max":957,"o":"m 252 416 l 252 71 q 261 39 252 50 q 295 22 271 28 l 295 0 l 102 0 l 102 22 q 136 39 126 28 q 145 71 145 50 l 145 855 q 136 886 145 876 q 102 904 126 897 l 102 926 l 589 926 q 748 915 691 926 q 850 876 805 904 q 925 798 897 847 q 957 673 957 742 q 899 510 957 578 q 785 437 854 458 q 589 416 716 416 l 252 416 m 252 505 l 599 505 q 714 511 676 505 q 781 534 751 517 q 850 671 850 575 q 781 808 850 767 q 714 831 751 825 q 599 838 677 838 l 252 838 l 252 505 z "},"Q":{"ha":1265,"x_min":79,"x_max":1186,"o":"m 869 22 q 631 -16 758 -16 q 239 112 389 -16 q 113 286 155 184 q 79 463 79 371 q 154 716 79 602 q 384 900 237 844 q 633 942 494 942 q 1025 814 876 942 q 1152 640 1109 742 q 1186 463 1186 555 q 1127 236 1186 340 q 964 67 1069 132 l 1061 -5 q 1084 -15 1073 -15 q 1115 7 1092 -15 l 1133 -7 l 1012 -157 l 996 -139 q 1011 -104 1011 -113 q 998 -81 1011 -90 l 869 22 m 779 93 l 743 120 q 686 153 718 140 q 634 166 655 166 q 573 146 604 166 l 561 164 q 692 206 625 206 q 880 131 780 206 q 1075 463 1075 244 q 964 732 1075 625 q 633 849 843 849 q 301 732 422 849 q 190 463 190 625 q 301 193 190 300 q 629 77 422 77 q 779 93 703 77 z "},"R":{"ha":1067,"x_min":102,"x_max":1021,"o":"m 252 417 l 252 80 q 260 40 252 52 q 295 22 269 28 l 295 0 l 102 0 l 102 22 q 136 40 127 28 q 145 80 145 52 l 145 846 q 136 886 145 874 q 102 904 127 898 l 102 926 l 610 926 q 775 915 714 926 q 880 876 836 903 q 955 798 926 847 q 987 671 987 741 q 917 498 987 565 q 724 422 847 431 l 960 56 q 1021 22 981 22 l 1021 0 l 806 0 l 806 22 q 840 41 840 27 q 816 85 840 47 l 606 417 l 252 417 m 252 505 l 627 505 q 742 511 703 505 q 811 534 781 517 q 881 671 881 575 q 809 808 881 767 q 738 831 777 825 q 617 838 699 838 l 252 838 l 252 505 z "},"S":{"ha":1039,"x_min":56,"x_max":983,"o":"m 970 869 l 873 694 l 854 704 q 866 742 866 734 q 816 786 866 762 q 527 850 680 850 q 309 803 401 850 q 238 743 264 780 q 212 666 212 707 q 232 602 212 632 q 286 557 252 572 q 372 533 322 540 q 534 524 422 527 q 758 509 690 519 q 868 475 825 499 q 983 279 983 410 q 879 73 983 153 q 559 -16 763 -16 q 355 7 442 -16 q 146 95 267 31 q 106 111 112 111 q 74 86 96 111 l 56 98 l 157 268 l 176 257 q 163 220 163 230 q 250 153 163 199 q 400 95 328 113 q 557 77 473 77 q 818 152 729 77 q 877 271 877 202 q 776 397 877 362 q 708 411 743 408 q 510 420 673 414 q 327 438 393 425 q 210 480 261 451 q 133 556 161 507 q 105 663 105 605 q 178 831 105 761 q 328 912 233 883 q 538 942 424 942 q 710 924 631 942 q 890 861 790 905 q 918 851 913 851 q 951 878 930 851 l 970 869 z "},"T":{"ha":921,"x_min":14,"x_max":907,"o":"m 513 838 l 513 80 q 522 40 513 52 q 557 22 531 28 l 557 0 l 363 0 l 363 22 q 398 40 389 28 q 407 80 407 52 l 407 838 l 94 838 q 53 829 65 838 q 35 795 41 821 l 14 795 l 14 970 l 35 970 q 53 935 41 943 q 94 926 65 926 l 827 926 q 867 935 855 926 q 885 970 879 943 l 907 970 l 907 795 l 885 795 q 867 829 879 821 q 827 838 855 838 l 513 838 z "},"U":{"ha":1097,"x_min":83,"x_max":1013,"o":"m 233 846 l 233 334 q 243 206 233 243 q 282 142 252 169 q 553 77 355 77 q 836 153 768 77 q 865 215 858 179 q 873 334 873 250 l 873 846 q 864 885 873 873 q 829 904 855 897 l 829 926 l 1013 926 l 1013 904 q 979 886 987 898 q 970 846 970 874 l 970 313 q 951 163 970 214 q 818 27 916 71 q 549 -16 721 -16 q 196 83 291 -16 q 142 175 157 123 q 127 313 127 226 l 127 846 q 118 886 127 874 q 83 904 109 898 l 83 926 l 277 926 l 277 904 q 242 885 251 897 q 233 846 233 873 z "},"V":{"ha":995,"x_min":5,"x_max":990,"o":"m 501 121 l 801 806 q 820 869 820 848 q 781 904 820 895 l 781 926 l 990 926 l 990 904 q 946 879 958 895 q 902 789 935 863 l 604 116 q 587 58 587 76 q 625 22 587 30 l 625 0 l 368 0 l 368 22 q 406 60 406 30 q 389 116 406 76 l 85 809 q 47 880 60 865 q 5 904 35 895 l 5 926 l 226 926 l 226 904 q 186 869 186 895 q 203 806 186 846 l 501 121 z "},"W":{"ha":1470,"x_min":-5,"x_max":1475,"o":"m 739 787 l 505 111 q 491 55 491 71 q 530 22 491 33 l 530 0 l 305 0 l 305 22 q 344 55 344 29 q 329 111 344 69 l 81 792 q 42 880 56 862 q -5 904 28 898 l -5 926 l 212 926 l 212 904 q 172 869 172 899 q 190 806 172 859 l 420 153 l 649 806 q 669 873 669 864 q 630 904 669 897 l 630 926 l 866 926 l 866 904 q 827 869 827 895 q 846 806 827 859 l 1070 153 l 1293 806 q 1309 871 1309 855 q 1271 904 1309 897 l 1271 926 l 1475 926 l 1475 904 q 1427 878 1442 897 q 1389 792 1411 859 l 1152 111 q 1139 58 1139 71 q 1177 22 1139 31 l 1177 0 l 956 0 l 956 22 q 995 59 995 31 q 981 105 995 68 l 739 787 z "},"X":{"ha":954,"x_min":5,"x_max":950,"o":"m 535 495 l 840 105 q 950 22 903 25 l 950 0 l 713 0 l 713 22 q 745 45 745 27 q 708 105 745 58 l 470 411 l 233 105 q 195 46 195 56 q 228 22 195 30 l 228 0 l 5 0 l 5 22 q 59 45 33 26 q 116 105 85 64 l 410 488 l 180 783 q 99 883 116 867 q 54 904 82 899 l 54 926 l 290 926 l 290 904 q 256 874 256 894 q 284 819 256 855 l 476 571 l 668 819 q 701 880 701 861 q 668 904 701 899 l 668 926 l 888 926 l 888 904 q 832 872 861 899 q 755 783 804 846 l 535 495 z "},"Y":{"ha":904,"x_min":-10,"x_max":913,"o":"m 509 410 l 509 80 q 518 40 509 52 q 553 22 527 28 l 553 0 l 359 0 l 359 22 q 394 40 385 28 q 403 80 403 52 l 403 410 l 104 802 q 36 882 55 865 q -10 904 18 899 l -10 926 l 224 926 l 224 904 q 193 878 193 896 q 224 812 193 855 l 460 492 l 694 823 q 724 880 724 865 q 694 904 724 897 l 694 926 l 913 926 l 913 904 q 856 874 880 898 q 793 802 807 823 l 509 410 z "},"Z":{"ha":898,"x_min":37,"x_max":861,"o":"m 857 926 l 857 907 l 220 88 l 781 88 q 822 97 810 88 q 840 132 833 106 l 861 132 l 861 -43 l 840 -43 q 822 -9 833 -18 q 781 0 810 0 l 37 0 l 37 20 l 675 838 l 125 838 q 84 829 96 838 q 66 795 73 820 l 45 795 l 45 970 l 66 970 q 84 935 73 943 q 125 926 96 926 l 857 926 z "},"[":{"ha":440,"x_min":93,"x_max":440,"o":"m 233 963 l 233 -37 l 363 -37 q 403 -28 391 -37 q 422 7 415 -19 l 440 7 l 440 -155 l 422 -155 q 404 -120 416 -129 q 363 -111 391 -111 l 93 -111 l 93 -88 q 127 -71 119 -82 q 136 -31 136 -59 l 136 957 q 127 996 136 985 q 93 1014 119 1008 l 93 1037 l 363 1037 q 403 1046 391 1037 q 422 1080 415 1055 l 440 1080 l 440 919 l 422 919 q 404 954 416 945 q 363 963 392 963 l 233 963 z "},"\\":{"ha":990,"x_min":65,"x_max":926,"o":"m 273 926 l 273 907 q 241 884 241 902 q 277 823 241 872 l 815 103 q 926 19 879 22 l 926 0 l 712 0 l 712 19 q 745 42 745 24 q 707 103 745 52 l 176 823 q 65 907 112 905 l 65 926 l 273 926 z "},"]":{"ha":440,"x_min":0,"x_max":347,"o":"m 207 963 l 77 963 q 36 954 48 963 q 18 919 24 945 l 0 919 l 0 1080 l 18 1080 q 37 1046 25 1055 q 77 1037 49 1037 l 347 1037 l 347 1014 q 313 996 321 1008 q 304 957 304 985 l 304 -31 q 313 -71 304 -59 q 347 -88 321 -82 l 347 -111 l 77 -111 q 37 -120 49 -111 q 18 -155 24 -129 l 0 -155 l 0 7 l 18 7 q 37 -28 25 -19 q 77 -37 49 -37 l 207 -37 l 207 963 z "},"^":{"ha":694,"x_min":44,"x_max":650,"o":"m 143 521 l 44 521 l 287 928 l 407 928 l 650 521 l 549 521 l 346 856 l 143 521 z "},"_":{"ha":694,"x_min":0,"x_max":694,"o":"m 0 -100 l 694 -100 l 694 -170 l 0 -170 l 0 -100 z "},"`":{"ha":694,"x_min":188,"x_max":414,"o":"m 188 1040 l 345 1040 l 345 1021 q 327 1006 327 1019 q 329 998 327 1002 l 381 888 q 394 867 389 871 q 414 863 399 863 l 414 845 l 297 845 l 297 863 q 300 863 299 863 q 314 873 314 863 q 310 886 314 880 l 222 1003 q 188 1021 211 1019 l 188 1040 z "},"a":{"ha":859,"x_min":3,"x_max":863,"o":"m 622 214 l 224 214 l 166 86 q 155 51 155 62 q 191 18 155 28 l 191 0 l 3 0 l 3 18 q 46 40 31 23 q 82 103 61 56 l 334 650 q 355 712 355 695 q 321 741 355 736 l 321 760 l 541 760 l 541 741 q 507 712 507 734 q 534 640 507 699 l 776 114 q 818 42 800 62 q 863 18 836 22 l 863 0 l 665 0 l 665 18 q 696 41 696 25 q 680 86 696 50 l 622 214 m 590 288 l 424 659 l 256 288 l 590 288 z "},"b":{"ha":899,"x_min":81,"x_max":839,"o":"m 705 398 q 839 212 839 344 q 771 58 839 115 q 684 13 733 26 q 551 0 634 0 l 81 0 l 81 18 q 116 37 107 25 q 125 77 125 49 l 125 683 q 116 723 125 711 q 81 741 107 734 l 81 760 l 537 760 q 652 750 608 760 q 729 720 696 741 q 791 650 768 694 q 814 557 814 606 q 705 398 814 452 m 222 434 l 510 434 q 611 439 578 434 q 669 459 643 444 q 721 553 721 488 q 661 661 721 626 q 601 681 634 675 q 502 686 568 686 l 222 686 l 222 434 m 222 74 l 524 74 q 630 80 596 74 q 691 102 664 85 q 746 210 746 137 q 682 331 746 292 q 620 354 655 348 q 515 360 585 360 l 222 360 l 222 74 z "},"c":{"ha":979,"x_min":63,"x_max":920,"o":"m 893 703 l 808 557 l 793 568 q 798 595 798 585 q 770 627 798 609 q 514 697 661 697 q 273 618 370 697 q 165 385 165 529 q 285 136 165 229 q 510 62 379 62 q 767 149 658 62 q 810 198 810 182 q 798 233 810 210 l 814 243 l 920 107 l 905 95 q 871 116 882 116 q 855 107 866 116 q 688 13 772 42 q 500 -16 604 -16 q 202 81 319 -16 q 108 197 143 130 q 63 381 63 283 q 209 682 63 568 q 514 776 330 776 q 825 696 677 776 q 845 689 838 689 q 877 712 859 689 l 893 703 z "},"d":{"ha":950,"x_min":81,"x_max":887,"o":"m 125 77 l 125 683 q 116 723 125 711 q 81 741 108 734 l 81 760 l 465 760 q 694 724 619 760 q 841 573 788 678 q 887 380 887 482 q 826 159 887 260 q 692 36 773 72 q 465 0 611 0 l 81 0 l 81 18 q 116 37 108 25 q 125 77 125 49 m 222 74 l 460 74 q 657 111 595 74 q 760 237 726 151 q 785 380 785 302 q 714 602 785 519 q 617 667 675 648 q 460 686 559 686 l 222 686 l 222 74 z "},"e":{"ha":828,"x_min":81,"x_max":768,"o":"m 222 355 l 222 74 l 691 74 q 731 83 720 74 q 749 118 743 92 l 768 118 l 768 -43 l 749 -43 q 732 -9 743 -18 q 692 0 720 0 l 81 0 l 81 18 q 116 37 108 25 q 125 77 125 49 l 125 683 q 116 723 125 711 q 81 741 107 734 l 81 760 l 687 760 q 727 768 715 760 q 745 803 739 777 l 764 803 l 764 642 l 745 642 q 727 677 739 668 q 687 686 715 686 l 222 686 l 222 429 l 518 429 q 558 438 547 429 q 576 473 570 447 l 595 473 l 595 311 l 576 311 q 558 347 570 338 q 518 355 546 355 l 222 355 z "},"f":{"ha":819,"x_min":81,"x_max":775,"o":"m 222 356 l 222 77 q 231 37 222 49 q 265 18 239 25 l 265 0 l 81 0 l 81 18 q 116 37 107 25 q 125 77 125 49 l 125 683 q 116 723 125 711 q 81 741 107 734 l 81 760 l 699 760 q 738 768 726 760 q 757 803 750 777 l 775 803 l 775 642 l 757 642 q 738 677 750 668 q 699 686 726 686 l 222 686 l 222 430 l 532 430 q 572 439 560 430 q 590 474 583 448 l 608 474 l 608 313 l 590 313 q 572 347 583 338 q 532 356 560 356 l 222 356 z "},"g":{"ha":972,"x_min":63,"x_max":913,"o":"m 897 688 l 804 539 l 789 549 q 795 581 795 572 q 731 635 795 598 q 509 694 627 694 q 271 612 366 694 q 165 375 165 520 q 262 150 165 237 q 514 62 357 62 q 664 86 593 62 q 785 151 735 109 l 785 290 l 614 290 q 573 281 585 290 q 555 247 562 273 l 537 247 l 537 408 l 555 408 q 573 373 562 382 q 614 364 585 364 l 913 364 l 913 346 q 878 328 887 340 q 869 288 869 316 l 869 209 q 878 169 869 180 q 913 151 887 157 l 913 135 q 503 -16 737 -16 q 201 83 319 -16 q 102 212 138 136 q 63 378 63 292 q 140 608 63 505 q 324 741 210 699 q 507 773 410 773 q 661 753 591 773 q 827 680 730 732 q 850 672 843 672 q 882 699 858 672 l 897 688 z "},"h":{"ha":945,"x_min":81,"x_max":863,"o":"m 722 354 l 222 354 l 222 77 q 231 37 222 49 q 265 18 239 25 l 265 0 l 81 0 l 81 18 q 116 37 107 25 q 125 77 125 49 l 125 683 q 116 723 125 711 q 81 741 107 734 l 81 760 l 265 760 l 265 741 q 231 723 239 734 q 222 683 222 711 l 222 428 l 722 428 l 722 683 q 713 723 722 711 q 679 741 705 734 l 679 760 l 863 760 l 863 741 q 828 723 837 734 q 819 683 819 711 l 819 77 q 828 37 819 49 q 863 18 837 25 l 863 0 l 679 0 l 679 18 q 713 37 705 25 q 722 77 722 49 l 722 354 z "},"i":{"ha":347,"x_min":81,"x_max":265,"o":"m 125 77 l 125 683 q 116 723 125 711 q 81 741 107 734 l 81 760 l 265 760 l 265 741 q 231 723 239 734 q 222 683 222 711 l 222 77 q 231 37 222 49 q 265 18 239 25 l 265 0 l 81 0 l 81 18 q 116 37 107 25 q 125 77 125 49 z "},"j":{"ha":682,"x_min":3,"x_max":614,"o":"m 3 24 l 79 185 l 97 178 q 92 146 92 155 q 104 125 92 135 q 196 80 138 98 q 309 62 254 62 q 400 80 361 62 q 456 130 439 98 q 474 258 474 163 l 474 683 q 465 723 474 711 q 431 741 456 734 l 431 760 l 614 760 l 614 741 q 580 723 589 734 q 571 683 571 711 l 571 239 q 561 135 571 175 q 526 66 550 95 q 439 6 494 28 q 319 -16 384 -16 q 193 -1 264 -16 q 69 37 122 14 q 51 41 58 41 q 20 17 35 41 l 3 24 z "},"k":{"ha":857,"x_min":81,"x_max":845,"o":"m 222 294 l 222 77 q 231 37 222 49 q 265 18 239 25 l 265 0 l 81 0 l 81 18 q 116 37 107 25 q 125 77 125 49 l 125 683 q 116 723 125 711 q 81 741 107 734 l 81 760 l 265 760 l 265 741 q 231 723 239 734 q 222 683 222 711 l 222 383 l 585 666 q 631 704 623 695 q 640 722 640 713 q 616 741 640 736 l 616 760 l 829 760 l 829 741 q 792 731 802 736 q 760 709 782 726 l 457 473 l 793 46 q 816 24 806 29 q 845 18 826 19 l 845 0 l 643 0 l 643 18 q 673 37 673 26 q 649 76 673 44 l 385 417 l 222 294 z "},"l":{"ha":777,"x_min":81,"x_max":762,"o":"m 222 74 l 685 74 q 725 83 713 74 q 744 118 737 92 l 762 118 l 762 -43 l 744 -43 q 725 -9 737 -18 q 685 0 713 0 l 81 0 l 81 18 q 116 37 107 25 q 125 77 125 49 l 125 683 q 116 723 125 711 q 81 741 107 734 l 81 760 l 265 760 l 265 741 q 231 723 239 734 q 222 683 222 711 l 222 74 z "},"m":{"ha":1074,"x_min":81,"x_max":991,"o":"m 528 0 l 205 640 l 205 77 q 214 37 205 49 q 249 18 223 25 l 249 0 l 81 0 l 81 18 q 116 37 107 25 q 125 77 125 49 l 125 683 q 116 723 125 711 q 81 741 107 734 l 81 760 l 312 760 l 312 741 q 278 711 278 731 q 295 669 278 703 l 535 183 l 777 669 q 793 711 793 701 q 759 741 793 731 l 759 760 l 991 760 l 991 741 q 957 723 966 734 q 948 683 948 711 l 948 77 q 957 37 948 49 q 991 18 966 25 l 991 0 l 808 0 l 808 18 q 842 37 833 25 q 851 77 851 49 l 851 640 l 528 0 z "},"n":{"ha":972,"x_min":81,"x_max":891,"o":"m 205 641 l 205 77 q 214 37 205 49 q 249 18 222 25 l 249 0 l 81 0 l 81 18 q 116 37 108 25 q 125 77 125 49 l 125 683 q 116 723 125 711 q 81 741 107 734 l 81 760 l 328 760 l 328 741 q 293 706 293 730 q 319 657 293 686 l 767 155 l 767 683 q 758 723 767 711 q 724 741 749 734 l 724 760 l 891 760 l 891 741 q 857 723 865 734 q 848 683 848 711 l 848 77 q 856 37 848 49 q 891 18 865 25 l 891 0 l 692 0 l 692 18 q 728 46 728 27 q 695 97 728 60 l 205 641 z "},"o":{"ha":1042,"x_min":63,"x_max":979,"o":"m 519 776 q 846 670 722 776 q 979 374 979 558 q 913 164 979 260 q 521 -16 791 -16 q 195 90 319 -16 q 63 380 63 202 q 127 595 63 500 q 319 743 196 696 q 519 776 404 774 m 519 697 q 253 595 354 697 q 165 380 165 507 q 253 164 165 252 q 521 62 354 62 q 789 164 688 62 q 877 376 877 252 q 789 595 877 509 q 519 697 687 696 z "},"p":{"ha":833,"x_min":81,"x_max":795,"o":"m 222 341 l 222 71 q 231 39 222 50 q 263 22 240 28 l 263 0 l 81 0 l 81 22 q 115 39 106 28 q 125 71 125 50 l 125 694 q 115 723 125 713 q 81 739 105 733 l 81 760 l 502 760 q 629 752 586 760 q 707 724 672 745 q 772 653 748 699 q 795 550 795 606 q 772 448 795 494 q 706 378 749 403 q 628 349 671 356 q 502 341 585 341 l 222 341 m 222 415 l 489 415 q 596 421 562 415 q 655 443 631 427 q 703 551 703 474 q 655 658 703 626 q 596 680 631 674 q 489 686 562 686 l 222 686 l 222 415 z "},"q":{"ha":1042,"x_min":63,"x_max":979,"o":"m 722 17 q 519 -16 627 -16 q 195 90 319 -16 q 63 380 63 202 q 195 670 63 557 q 521 776 319 776 q 846 670 722 776 q 979 380 979 557 q 801 56 979 173 l 871 3 q 901 -9 887 -9 q 928 13 909 -9 l 943 3 l 841 -131 l 827 -119 q 836 -88 836 -96 q 815 -56 836 -73 l 722 17 m 644 79 q 571 125 595 114 q 523 137 547 137 q 475 119 500 137 l 464 134 q 573 171 518 171 q 643 159 611 171 q 725 114 675 146 q 877 380 877 212 q 789 595 877 507 q 521 697 688 697 q 253 595 354 697 q 165 380 165 507 q 253 164 165 252 q 520 62 354 62 q 644 79 577 62 z "},"r":{"ha":887,"x_min":81,"x_max":850,"o":"m 222 344 l 222 77 q 231 37 222 49 q 265 18 239 25 l 265 0 l 81 0 l 81 18 q 116 37 108 25 q 125 77 125 49 l 125 683 q 116 723 125 711 q 81 741 107 734 l 81 760 l 532 760 q 657 749 609 760 q 742 712 706 738 q 821 549 821 656 q 766 411 821 462 q 604 351 711 361 l 795 48 q 815 26 805 32 q 850 17 825 20 l 850 0 l 662 0 l 662 18 q 688 35 688 24 q 673 68 688 43 l 498 344 l 222 344 m 222 418 l 511 418 q 615 423 581 418 q 675 441 650 428 q 728 545 728 471 q 678 652 728 616 q 522 686 632 686 l 222 686 l 222 418 z "},"s":{"ha":860,"x_min":45,"x_max":816,"o":"m 804 720 l 729 572 l 713 581 q 716 608 716 600 q 672 647 716 624 q 444 697 578 697 q 261 657 336 697 q 186 544 186 616 q 205 485 186 511 q 256 448 224 459 q 325 434 288 437 q 485 426 362 431 q 640 413 587 422 q 730 382 692 404 q 793 318 770 360 q 816 225 816 275 q 730 58 816 120 q 456 -16 627 -16 q 279 9 372 -16 q 107 80 186 35 q 91 87 96 87 q 60 63 81 87 l 45 73 l 131 218 l 147 208 q 144 197 145 200 q 141 180 141 186 q 210 124 141 161 q 452 62 327 62 q 643 102 567 62 q 701 153 680 121 q 723 220 723 185 q 705 279 723 253 q 656 315 686 304 q 594 329 629 325 q 465 336 560 333 q 305 348 353 341 q 214 370 257 354 q 127 433 160 389 q 94 541 94 479 q 193 712 94 650 q 450 776 294 776 q 736 712 592 776 q 761 703 758 703 q 787 728 772 703 l 804 720 z "},"t":{"ha":768,"x_min":11,"x_max":756,"o":"m 432 682 l 432 77 q 440 37 432 49 q 475 18 449 25 l 475 0 l 292 0 l 292 18 q 326 37 317 25 q 335 77 335 49 l 335 682 l 87 682 q 47 673 59 682 q 29 637 36 664 l 11 637 l 11 799 l 29 799 q 47 764 36 773 q 87 755 59 755 l 680 755 q 720 764 708 755 q 738 799 731 773 l 756 799 l 756 637 l 738 637 q 719 673 731 664 q 680 682 707 682 l 432 682 z "},"u":{"ha":910,"x_min":66,"x_max":843,"o":"m 207 683 l 207 293 q 216 169 207 203 q 254 111 224 134 q 463 62 315 62 q 684 122 627 62 q 712 177 705 144 q 719 293 719 210 l 719 683 q 710 723 719 711 q 675 741 701 734 l 675 760 l 843 760 l 843 741 q 808 723 817 734 q 800 683 800 711 l 800 273 q 782 126 800 169 q 673 18 752 53 q 454 -16 593 -16 q 175 58 255 -16 q 123 137 136 93 q 110 273 110 181 l 110 683 q 101 723 110 711 q 66 741 92 734 l 66 760 l 250 760 l 250 741 q 216 723 224 734 q 207 683 207 711 z "},"v":{"ha":835,"x_min":3,"x_max":831,"o":"m 429 108 l 672 665 q 682 703 682 687 q 642 741 682 735 l 642 760 l 831 760 l 831 741 q 788 717 802 733 q 749 640 775 701 l 517 112 q 500 56 500 75 q 538 18 500 26 l 538 0 l 304 0 l 304 18 q 342 56 342 26 q 325 112 342 75 l 86 640 q 45 718 58 702 q 3 741 33 733 l 3 760 l 214 760 l 214 741 q 174 705 174 734 q 184 665 174 688 l 429 108 z "},"w":{"ha":1236,"x_min":-3,"x_max":1240,"o":"m 618 623 l 433 106 q 420 58 420 68 q 459 18 420 28 l 459 0 l 248 0 l 248 18 q 285 54 285 24 q 273 106 285 72 l 64 667 q 38 719 51 705 q -3 741 26 732 l -3 760 l 195 760 l 195 741 q 157 705 157 732 q 167 667 157 696 l 361 131 l 551 667 q 560 704 560 694 q 524 741 560 731 l 524 760 l 728 760 l 728 741 q 689 705 689 731 q 698 667 689 692 l 892 124 l 1080 667 q 1087 701 1087 686 q 1044 741 1087 732 l 1044 760 l 1240 760 l 1240 741 q 1195 719 1211 734 q 1166 667 1179 703 l 963 95 q 954 56 954 69 q 991 18 954 22 l 991 0 l 782 0 l 782 18 q 818 54 818 24 q 805 106 818 70 l 618 623 z "},"x":{"ha":785,"x_min":3,"x_max":781,"o":"m 446 408 l 682 100 q 737 37 719 52 q 781 18 755 22 l 781 0 l 568 0 l 568 18 q 602 40 602 22 q 578 82 602 51 l 387 334 l 191 81 q 172 41 172 57 q 202 18 172 24 l 202 0 l 3 0 l 3 18 q 51 41 31 25 q 105 100 71 57 l 341 397 l 139 658 q 86 721 102 707 q 43 741 70 734 l 43 760 l 260 760 l 260 741 q 229 711 229 733 q 244 673 229 694 l 397 472 l 558 677 q 574 712 574 699 q 543 741 574 736 l 543 760 l 736 760 l 736 741 q 691 717 707 731 q 640 657 675 703 l 446 408 z "},"y":{"ha":755,"x_min":-8,"x_max":762,"o":"m 434 335 l 434 77 q 443 37 434 49 q 477 18 451 25 l 477 0 l 294 0 l 294 18 q 328 37 319 25 q 337 77 337 49 l 337 335 l 103 640 q 40 715 60 696 q -8 741 20 733 l -8 760 l 206 760 l 206 741 q 176 715 176 736 q 195 673 176 696 l 395 410 l 576 672 q 595 714 595 700 q 564 741 595 737 l 564 760 l 762 760 l 762 741 q 706 706 732 731 q 635 619 680 682 l 434 335 z "},"z":{"ha":740,"x_min":30,"x_max":711,"o":"m 709 760 l 709 748 l 193 74 l 633 74 q 674 83 662 74 q 692 118 686 92 l 711 118 l 711 -43 l 692 -43 q 674 -9 686 -18 q 633 0 662 0 l 30 0 l 30 15 l 550 686 l 114 686 q 74 677 85 686 q 56 642 62 668 l 37 642 l 37 803 l 56 803 q 74 768 62 777 q 114 760 85 760 l 709 760 z "},"{":{"ha":440,"x_min":0,"x_max":440,"o":"m 0 376 l 0 551 l 16 551 q 29 516 22 526 q 52 507 37 507 l 94 507 q 128 528 121 507 q 136 624 135 548 l 136 932 q 175 1004 136 971 q 259 1037 213 1037 l 363 1037 q 404 1046 392 1037 q 422 1080 415 1055 l 440 1080 l 440 919 l 422 919 q 404 954 415 945 q 363 963 392 963 l 307 963 q 247 928 269 962 q 236 887 238 913 q 233 768 233 861 l 233 560 q 222 510 233 530 q 178 463 210 490 q 222 417 210 437 q 233 366 233 397 l 233 60 q 307 -37 231 -30 l 363 -37 q 403 -28 391 -37 q 422 7 415 -20 l 440 7 l 440 -155 l 422 -155 q 403 -120 415 -129 q 363 -111 391 -111 l 259 -111 q 180 -83 218 -111 q 136 -6 136 -50 l 136 302 q 128 399 135 378 q 94 419 121 419 l 52 419 q 29 410 37 419 q 16 376 22 401 l 0 376 z "},"|":{"ha":694,"x_min":294,"x_max":399,"o":"m 294 926 l 399 926 l 399 -231 l 294 -231 l 294 926 z "},"}":{"ha":440,"x_min":0,"x_max":440,"o":"m 440 376 l 424 376 q 411 410 418 401 q 387 419 403 419 l 345 419 q 312 399 319 419 q 303 302 304 378 l 303 -6 q 265 -78 303 -45 q 181 -111 227 -111 l 77 -111 q 37 -120 48 -111 q 18 -155 25 -129 l 0 -155 l 0 7 l 18 7 q 37 -28 25 -20 q 77 -37 48 -37 l 132 -37 q 206 60 208 -30 l 206 366 q 218 417 206 397 q 262 463 229 437 q 217 509 229 490 q 206 560 206 529 l 206 768 q 203 892 206 867 q 189 934 201 918 q 132 963 167 963 l 77 963 q 36 954 48 963 q 18 919 24 945 l 0 919 l 0 1080 l 18 1080 q 37 1046 25 1055 q 77 1037 48 1037 l 181 1037 q 260 1008 222 1037 q 303 932 303 975 l 303 624 q 312 528 304 548 q 345 507 319 507 l 387 507 q 411 516 403 507 q 424 551 418 526 l 440 551 l 440 376 z "},"~":{"ha":926,"x_min":131,"x_max":795,"o":"m 188 362 l 131 406 q 215 524 170 486 q 317 561 260 561 q 477 507 371 561 q 561 469 536 477 q 612 460 586 460 q 739 564 680 460 l 795 519 q 739 429 767 461 q 609 364 684 364 q 549 375 581 364 q 449 420 517 387 q 313 466 356 466 q 249 443 277 466 q 188 362 220 419 z "},"Ä":{"ha":1024,"x_min":4,"x_max":1029,"o":"m 759 260 l 263 260 l 182 84 q 170 49 170 59 q 210 22 170 28 l 210 0 l 4 0 l 4 22 q 46 42 32 26 q 85 110 61 58 l 424 842 q 436 878 436 868 q 403 904 436 895 l 403 926 l 628 926 l 628 904 q 595 876 595 893 q 607 842 595 868 l 932 136 q 979 45 968 58 q 1029 22 991 31 l 1029 0 l 810 0 l 810 22 q 849 52 849 27 q 834 94 849 62 l 759 260 m 719 348 l 511 805 l 303 348 l 719 348 m 409 1152 q 454 1133 435 1152 q 472 1088 472 1115 q 453 1044 472 1062 q 409 1025 435 1025 q 365 1044 383 1025 q 346 1088 346 1063 q 364 1133 346 1115 q 409 1152 382 1151 m 624 1152 q 669 1133 650 1152 q 687 1088 687 1115 q 668 1044 687 1062 q 624 1025 650 1025 q 579 1044 598 1025 q 561 1088 561 1063 q 579 1133 561 1115 q 624 1152 597 1151 z "},"Å":{"ha":1024,"x_min":4,"x_max":1029,"o":"m 759 260 l 263 260 l 182 84 q 170 49 170 59 q 210 22 170 28 l 210 0 l 4 0 l 4 22 q 46 42 32 26 q 85 110 61 58 l 424 842 q 436 878 436 868 q 403 904 436 895 l 403 926 l 628 926 l 628 904 q 595 876 595 893 q 607 842 595 868 l 932 136 q 979 45 968 58 q 1029 22 991 31 l 1029 0 l 810 0 l 810 22 q 849 52 849 27 q 834 94 849 62 l 759 260 m 719 348 l 511 805 l 303 348 l 719 348 m 516 1211 q 611 1178 572 1211 q 650 1097 650 1144 q 610 1017 650 1050 q 517 983 571 983 q 423 1017 462 983 q 384 1098 384 1050 q 422 1178 384 1145 q 516 1211 460 1211 m 517 1156 q 468 1140 488 1156 q 448 1097 448 1123 q 468 1056 448 1073 q 517 1038 488 1038 q 565 1056 545 1038 q 585 1097 585 1073 q 566 1139 585 1122 q 517 1156 547 1156 z "},"Ç":{"ha":1177,"x_min":79,"x_max":1103,"o":"m 1078 846 l 977 678 l 959 689 q 965 721 965 709 q 878 791 965 749 q 618 849 759 849 q 310 744 428 849 q 190 467 190 637 q 315 185 190 297 q 612 76 435 76 q 918 177 785 76 q 977 241 977 222 q 966 273 977 251 l 982 286 l 1103 139 l 1086 125 q 1055 142 1067 142 q 1029 128 1047 142 q 925 58 966 81 q 836 18 884 35 q 613 -16 734 -16 q 233 114 379 -16 q 79 462 79 250 q 175 751 79 629 q 626 942 326 942 q 1010 837 825 942 q 1027 830 1023 830 q 1059 856 1036 830 l 1078 846 m 496 -149 l 539 -72 q 568 -70 558 -70 q 661 -90 614 -70 q 715 -176 715 -114 q 677 -253 715 -223 q 564 -287 633 -287 q 438 -267 490 -287 l 452 -239 q 519 -251 487 -251 q 589 -233 564 -251 q 614 -184 614 -216 q 599 -146 614 -161 q 560 -132 585 -132 q 539 -136 545 -132 q 513 -160 533 -139 l 496 -149 z "},"É":{"ha":1000,"x_min":102,"x_max":925,"o":"m 252 432 l 252 88 l 845 88 q 885 97 873 88 q 903 132 897 106 l 925 132 l 925 -43 l 904 -43 q 885 -9 897 -18 q 845 0 873 0 l 102 0 l 102 22 q 137 40 128 28 q 145 80 145 52 l 145 846 q 136 886 145 874 q 102 904 127 897 l 102 926 l 836 926 q 876 935 865 926 q 895 970 888 943 l 916 970 l 916 795 l 895 795 q 877 829 888 820 q 836 838 865 838 l 252 838 l 252 520 l 635 520 q 675 529 663 520 q 693 564 687 538 l 715 564 l 715 389 l 693 389 q 675 423 687 414 q 635 432 663 432 l 252 432 m 677 1197 l 677 1179 q 643 1160 654 1177 l 555 1043 q 551 1031 551 1037 q 566 1021 551 1021 q 568 1021 566 1021 l 568 1002 l 451 1002 l 451 1021 q 471 1025 466 1021 q 485 1045 477 1029 l 536 1156 q 538 1164 538 1160 q 520 1179 538 1177 l 520 1197 l 677 1197 z "},"Ñ":{"ha":1168,"x_min":102,"x_max":1065,"o":"m 242 808 l 242 80 q 251 40 242 52 q 286 22 260 28 l 286 0 l 102 0 l 102 22 q 137 40 128 28 q 145 80 145 52 l 145 846 q 136 886 145 874 q 102 904 127 898 l 102 926 l 368 926 l 368 904 q 336 873 336 893 q 368 823 336 860 l 925 170 l 925 846 q 916 886 925 874 q 882 904 907 898 l 882 926 l 1065 926 l 1065 904 q 1031 886 1040 898 q 1022 846 1022 874 l 1022 80 q 1031 40 1022 52 q 1065 22 1040 28 l 1065 0 l 852 0 l 852 22 q 883 50 883 30 q 854 98 883 64 l 242 808 m 730 1175 l 819 1118 l 809 1103 q 794 1107 800 1107 q 777 1095 786 1107 q 684 1030 734 1030 q 631 1040 659 1030 l 533 1076 q 506 1081 521 1081 q 480 1070 492 1081 q 467 1046 468 1059 q 476 1027 467 1040 l 466 1015 l 376 1076 l 385 1088 q 399 1086 395 1086 q 423 1101 412 1086 q 524 1158 463 1158 q 563 1151 543 1158 l 661 1114 q 693 1107 677 1107 q 719 1118 707 1107 q 730 1142 730 1129 q 720 1162 730 1152 l 730 1175 z "},"Ö":{"ha":1265,"x_min":79,"x_max":1186,"o":"m 631 942 q 1025 814 876 942 q 1152 640 1109 743 q 1186 457 1186 555 q 1111 210 1186 325 q 881 26 1028 82 q 632 -16 771 -16 q 239 112 389 -16 q 113 286 156 184 q 79 463 79 370 q 153 717 79 601 q 384 900 235 842 q 631 942 488 940 m 631 849 q 301 732 422 849 q 190 463 190 625 q 301 193 190 300 q 632 77 422 77 q 964 193 843 77 q 1075 458 1075 300 q 964 732 1075 628 q 822 820 898 795 q 631 849 738 848 m 517 1152 q 562 1133 544 1152 q 581 1088 581 1115 q 562 1044 581 1062 q 517 1025 543 1025 q 473 1044 492 1025 q 454 1088 454 1062 q 473 1133 454 1115 q 517 1152 491 1151 m 756 1152 q 801 1133 783 1152 q 819 1088 819 1115 q 801 1044 819 1062 q 756 1025 782 1025 q 711 1044 730 1025 q 693 1088 693 1062 q 711 1133 693 1115 q 756 1152 730 1151 z "},"Ü":{"ha":1097,"x_min":83,"x_max":1013,"o":"m 233 846 l 233 334 q 243 206 233 243 q 282 142 252 169 q 553 77 355 77 q 836 153 768 77 q 865 215 858 179 q 873 334 873 250 l 873 846 q 864 885 873 873 q 829 904 855 897 l 829 926 l 1013 926 l 1013 904 q 979 886 987 898 q 970 846 970 874 l 970 313 q 951 163 970 214 q 818 27 916 71 q 549 -16 721 -16 q 196 83 291 -16 q 142 175 157 123 q 127 313 127 226 l 127 846 q 118 886 127 874 q 83 904 109 898 l 83 926 l 277 926 l 277 904 q 242 885 251 897 q 233 846 233 873 m 422 1152 q 467 1133 448 1152 q 485 1088 485 1115 q 466 1044 485 1062 q 422 1025 448 1025 q 377 1044 395 1025 q 359 1088 359 1062 q 377 1133 359 1115 q 422 1152 395 1151 m 674 1152 q 719 1133 701 1152 q 737 1088 737 1114 q 719 1044 737 1062 q 674 1025 700 1025 q 629 1044 648 1025 q 611 1088 611 1062 q 629 1133 611 1115 q 674 1152 648 1151 z "},"á":{"ha":859,"x_min":3,"x_max":863,"o":"m 622 214 l 224 214 l 166 86 q 155 51 155 62 q 191 18 155 28 l 191 0 l 3 0 l 3 18 q 46 40 31 23 q 82 103 61 56 l 334 650 q 355 712 355 695 q 321 741 355 736 l 321 760 l 541 760 l 541 741 q 507 712 507 734 q 534 640 507 699 l 776 114 q 818 42 800 62 q 863 18 836 22 l 863 0 l 665 0 l 665 18 q 696 41 696 25 q 680 86 696 50 l 622 214 m 590 288 l 424 659 l 256 288 l 590 288 m 593 1040 l 593 1021 q 559 1003 570 1019 l 471 886 q 467 873 467 880 q 481 863 467 863 q 484 863 482 863 l 484 845 l 367 845 l 367 863 q 387 867 382 863 q 401 888 393 871 l 452 998 q 454 1006 454 1002 q 436 1021 454 1019 l 436 1040 l 593 1040 z "},"à":{"ha":859,"x_min":3,"x_max":863,"o":"m 622 214 l 224 214 l 166 86 q 155 51 155 62 q 191 18 155 28 l 191 0 l 3 0 l 3 18 q 46 40 31 23 q 82 103 61 56 l 334 650 q 355 712 355 695 q 321 741 355 736 l 321 760 l 541 760 l 541 741 q 507 712 507 734 q 534 640 507 699 l 776 114 q 818 42 800 62 q 863 18 836 22 l 863 0 l 665 0 l 665 18 q 696 41 696 25 q 680 86 696 50 l 622 214 m 590 288 l 424 659 l 256 288 l 590 288 m 265 1040 l 422 1040 l 422 1021 q 404 1006 404 1019 q 406 998 404 1002 l 458 888 q 471 867 466 871 q 492 863 477 863 l 492 845 l 374 845 l 374 863 q 378 863 376 863 q 391 873 391 863 q 387 886 391 880 l 300 1003 q 265 1021 288 1019 l 265 1040 z "},"â":{"ha":859,"x_min":3,"x_max":863,"o":"m 622 214 l 224 214 l 166 86 q 155 51 155 62 q 191 18 155 28 l 191 0 l 3 0 l 3 18 q 46 40 31 23 q 82 103 61 56 l 334 650 q 355 712 355 695 q 321 741 355 736 l 321 760 l 541 760 l 541 741 q 507 712 507 734 q 534 640 507 699 l 776 114 q 818 42 800 62 q 863 18 836 22 l 863 0 l 665 0 l 665 18 q 696 41 696 25 q 680 86 696 50 l 622 214 m 590 288 l 424 659 l 256 288 l 590 288 m 352 845 l 210 845 l 210 863 q 235 868 227 864 q 259 892 242 873 l 358 993 q 366 1010 366 1001 q 342 1021 366 1021 l 342 1040 l 520 1040 l 520 1021 q 498 1009 498 1019 q 510 990 498 1002 l 625 877 q 657 863 637 864 l 657 845 l 498 845 l 498 863 q 520 873 520 865 q 509 889 520 878 l 425 978 l 338 887 q 331 876 331 880 q 352 863 331 865 l 352 845 z "},"ä":{"ha":859,"x_min":3,"x_max":863,"o":"m 622 214 l 224 214 l 166 86 q 155 51 155 62 q 191 18 155 28 l 191 0 l 3 0 l 3 18 q 46 40 31 23 q 82 103 61 56 l 334 650 q 355 712 355 695 q 321 741 355 736 l 321 760 l 541 760 l 541 741 q 507 712 507 734 q 534 640 507 699 l 776 114 q 818 42 800 62 q 863 18 836 22 l 863 0 l 665 0 l 665 18 q 696 41 696 25 q 680 86 696 50 l 622 214 m 590 288 l 424 659 l 256 288 l 590 288 m 325 994 q 370 976 351 994 q 388 930 388 958 q 369 886 388 905 q 325 868 351 868 q 280 886 298 868 q 262 931 262 905 q 280 976 262 958 q 325 994 298 994 m 541 994 q 585 976 567 994 q 604 930 604 958 q 585 886 604 905 q 541 868 566 868 q 496 886 514 868 q 477 931 477 905 q 495 976 477 958 q 541 994 513 994 z "},"ã":{"ha":859,"x_min":3,"x_max":863,"o":"m 622 214 l 224 214 l 166 86 q 155 51 155 62 q 191 18 155 28 l 191 0 l 3 0 l 3 18 q 46 40 31 23 q 82 103 61 56 l 334 650 q 355 712 355 695 q 321 741 355 736 l 321 760 l 541 760 l 541 741 q 507 712 507 734 q 534 640 507 699 l 776 114 q 818 42 800 62 q 863 18 836 22 l 863 0 l 665 0 l 665 18 q 696 41 696 25 q 680 86 696 50 l 622 214 m 590 288 l 424 659 l 256 288 l 590 288 m 566 1018 l 654 961 l 644 945 q 629 949 635 949 q 612 937 621 949 q 519 872 569 872 q 466 883 495 872 l 368 919 q 341 924 355 924 q 315 912 328 924 q 302 889 302 901 q 311 870 302 882 l 301 858 l 212 919 l 220 931 q 235 928 229 928 q 258 944 247 928 q 359 1001 297 1001 q 398 993 377 1001 l 496 956 q 528 949 513 949 q 554 960 542 949 q 566 984 566 971 q 555 1005 566 994 l 566 1018 z "},"å":{"ha":859,"x_min":3,"x_max":863,"o":"m 622 214 l 224 214 l 166 86 q 155 51 155 62 q 191 18 155 28 l 191 0 l 3 0 l 3 18 q 46 40 31 23 q 82 103 61 56 l 334 650 q 355 712 355 695 q 321 741 355 736 l 321 760 l 541 760 l 541 741 q 507 712 507 734 q 534 640 507 699 l 776 114 q 818 42 800 62 q 863 18 836 22 l 863 0 l 665 0 l 665 18 q 696 41 696 25 q 680 86 696 50 l 622 214 m 590 288 l 424 659 l 256 288 l 590 288 m 428 1054 q 523 1021 484 1054 q 562 939 562 987 q 522 860 562 893 q 429 826 483 826 q 335 860 374 826 q 296 941 296 893 q 334 1021 296 988 q 428 1054 372 1053 m 429 999 q 380 982 399 999 q 360 940 360 966 q 380 898 360 916 q 429 881 400 881 q 477 898 456 881 q 497 939 497 916 q 478 982 497 965 q 429 999 458 999 z "},"ç":{"ha":979,"x_min":63,"x_max":920,"o":"m 893 703 l 808 557 l 793 568 q 798 595 798 585 q 770 627 798 609 q 514 697 661 697 q 273 618 370 697 q 165 385 165 529 q 285 136 165 229 q 510 62 379 62 q 767 149 658 62 q 810 198 810 182 q 798 233 810 210 l 814 243 l 920 107 l 905 95 q 871 116 882 116 q 855 107 866 116 q 688 13 772 42 q 500 -16 604 -16 q 202 81 319 -16 q 108 197 143 130 q 63 381 63 283 q 209 682 63 568 q 514 776 330 776 q 825 696 677 776 q 845 689 838 689 q 877 712 859 689 l 893 703 m 406 -137 l 441 -66 q 468 -65 456 -65 q 560 -90 526 -65 q 594 -158 594 -115 q 560 -232 594 -204 q 465 -260 527 -260 q 360 -244 404 -260 l 371 -220 q 425 -229 399 -229 q 501 -173 501 -229 q 459 -127 501 -127 q 420 -145 437 -127 l 406 -137 z "},"é":{"ha":828,"x_min":81,"x_max":768,"o":"m 222 355 l 222 74 l 691 74 q 731 83 720 74 q 749 118 743 92 l 768 118 l 768 -43 l 749 -43 q 732 -9 743 -18 q 692 0 720 0 l 81 0 l 81 18 q 116 37 108 25 q 125 77 125 49 l 125 683 q 116 723 125 711 q 81 741 107 734 l 81 760 l 687 760 q 727 768 715 760 q 745 803 739 777 l 764 803 l 764 642 l 745 642 q 727 677 739 668 q 687 686 715 686 l 222 686 l 222 429 l 518 429 q 558 438 547 429 q 576 473 570 447 l 595 473 l 595 311 l 576 311 q 558 347 570 338 q 518 355 546 355 l 222 355 m 592 1040 l 592 1021 q 557 1003 569 1019 l 470 886 q 466 873 466 880 q 480 863 466 863 q 483 863 481 863 l 483 845 l 366 845 l 366 863 q 386 867 380 863 q 399 888 391 871 l 451 998 q 453 1006 453 1002 q 435 1021 453 1019 l 435 1040 l 592 1040 z "},"è":{"ha":828,"x_min":81,"x_max":768,"o":"m 222 355 l 222 74 l 691 74 q 731 83 720 74 q 749 118 743 92 l 768 118 l 768 -43 l 749 -43 q 732 -9 743 -18 q 692 0 720 0 l 81 0 l 81 18 q 116 37 108 25 q 125 77 125 49 l 125 683 q 116 723 125 711 q 81 741 107 734 l 81 760 l 687 760 q 727 768 715 760 q 745 803 739 777 l 764 803 l 764 642 l 745 642 q 727 677 739 668 q 687 686 715 686 l 222 686 l 222 429 l 518 429 q 558 438 547 429 q 576 473 570 447 l 595 473 l 595 311 l 576 311 q 558 347 570 338 q 518 355 546 355 l 222 355 m 282 1040 l 439 1040 l 439 1021 q 421 1006 421 1019 q 423 998 421 1002 l 475 888 q 488 867 483 871 q 509 863 494 863 l 509 845 l 391 845 l 391 863 q 395 863 393 863 q 408 873 408 863 q 404 886 408 880 l 317 1003 q 282 1021 305 1019 l 282 1040 z "},"ê":{"ha":828,"x_min":81,"x_max":768,"o":"m 222 355 l 222 74 l 691 74 q 731 83 720 74 q 749 118 743 92 l 768 118 l 768 -43 l 749 -43 q 732 -9 743 -18 q 692 0 720 0 l 81 0 l 81 18 q 116 37 108 25 q 125 77 125 49 l 125 683 q 116 723 125 711 q 81 741 107 734 l 81 760 l 687 760 q 727 768 715 760 q 745 803 739 777 l 764 803 l 764 642 l 745 642 q 727 677 739 668 q 687 686 715 686 l 222 686 l 222 429 l 518 429 q 558 438 547 429 q 576 473 570 447 l 595 473 l 595 311 l 576 311 q 558 347 570 338 q 518 355 546 355 l 222 355 m 353 845 l 210 845 l 210 863 q 235 868 228 864 q 260 892 243 873 l 359 993 q 367 1010 367 1001 q 343 1021 367 1021 l 343 1040 l 521 1040 l 521 1021 q 498 1009 498 1019 q 511 990 498 1002 l 625 877 q 658 863 637 864 l 658 845 l 498 845 l 498 863 q 521 873 521 865 q 509 889 521 878 l 425 978 l 338 887 q 332 876 332 880 q 353 863 332 865 l 353 845 z "},"ë":{"ha":828,"x_min":81,"x_max":768,"o":"m 222 355 l 222 74 l 691 74 q 731 83 720 74 q 749 118 743 92 l 768 118 l 768 -43 l 749 -43 q 732 -9 743 -18 q 692 0 720 0 l 81 0 l 81 18 q 116 37 108 25 q 125 77 125 49 l 125 683 q 116 723 125 711 q 81 741 107 734 l 81 760 l 687 760 q 727 768 715 760 q 745 803 739 777 l 764 803 l 764 642 l 745 642 q 727 677 739 668 q 687 686 715 686 l 222 686 l 222 429 l 518 429 q 558 438 547 429 q 576 473 570 447 l 595 473 l 595 311 l 576 311 q 558 347 570 338 q 518 355 546 355 l 222 355 m 313 994 q 357 976 339 994 q 376 930 376 958 q 357 886 376 905 q 313 868 338 868 q 268 887 287 868 q 250 931 250 905 q 268 976 250 958 q 313 994 286 994 m 551 994 q 596 976 578 994 q 614 930 614 958 q 596 886 614 905 q 551 868 577 868 q 507 887 525 868 q 488 931 488 905 q 507 976 488 958 q 551 994 525 994 z "},"í":{"ha":347,"x_min":81,"x_max":338,"o":"m 125 77 l 125 683 q 116 723 125 711 q 81 741 107 734 l 81 760 l 265 760 l 265 741 q 231 723 239 734 q 222 683 222 711 l 222 77 q 231 37 222 49 q 265 18 239 25 l 265 0 l 81 0 l 81 18 q 116 37 107 25 q 125 77 125 49 m 338 1040 l 338 1021 q 303 1003 315 1019 l 216 886 q 212 873 212 880 q 226 863 212 863 q 229 863 227 863 l 229 845 l 111 845 l 111 863 q 132 867 126 863 q 145 888 137 871 l 197 998 q 199 1006 199 1002 q 180 1021 199 1019 l 180 1040 l 338 1040 z "},"ì":{"ha":347,"x_min":9,"x_max":266,"o":"m 125 77 l 125 683 q 117 723 125 711 q 82 741 108 734 l 82 760 l 266 760 l 266 741 q 231 723 240 734 q 222 683 222 711 l 222 77 q 231 37 222 49 q 266 18 240 25 l 266 0 l 82 0 l 82 18 q 117 37 108 25 q 125 77 125 49 m 9 1040 l 167 1040 l 167 1021 q 149 1006 149 1019 q 151 998 149 1002 l 203 888 q 216 867 210 871 q 236 863 221 863 l 236 845 l 119 845 l 119 863 q 122 863 121 863 q 136 873 136 863 q 132 886 136 880 l 44 1003 q 9 1021 33 1019 l 9 1040 z "},"î":{"ha":347,"x_min":-18,"x_max":365,"o":"m 125 77 l 125 683 q 117 723 125 711 q 82 741 108 734 l 82 760 l 266 760 l 266 741 q 231 723 240 734 q 222 683 222 711 l 222 77 q 231 37 222 49 q 266 18 240 25 l 266 0 l 82 0 l 82 18 q 117 37 108 25 q 125 77 125 49 m 115 845 l -18 845 l -18 863 q 32 892 10 864 l 98 993 q 106 1009 106 1005 q 83 1021 106 1021 l 83 1040 l 260 1040 l 260 1021 q 239 1009 239 1019 q 248 990 239 1003 l 328 877 q 365 863 347 865 l 365 845 l 215 845 l 215 863 q 237 873 238 865 q 233 882 237 878 q 226 889 227 888 l 165 983 l 101 887 q 94 876 94 878 q 115 863 94 865 l 115 845 z "},"ï":{"ha":347,"x_min":23,"x_max":323,"o":"m 125 77 l 125 683 q 116 723 125 711 q 81 741 107 734 l 81 760 l 265 760 l 265 741 q 231 723 239 734 q 222 683 222 711 l 222 77 q 231 37 222 49 q 265 18 239 25 l 265 0 l 81 0 l 81 18 q 116 37 107 25 q 125 77 125 49 m 86 994 q 131 976 113 994 q 149 930 149 958 q 131 886 149 905 q 86 868 112 868 q 42 887 60 868 q 23 931 23 905 q 41 976 23 958 q 86 994 60 994 m 260 994 q 304 976 286 994 q 323 930 323 958 q 304 886 323 905 q 260 868 286 868 q 215 887 234 868 q 197 931 197 905 q 215 976 197 958 q 260 994 233 994 z "},"ñ":{"ha":972,"x_min":81,"x_max":891,"o":"m 205 641 l 205 77 q 214 37 205 49 q 249 18 222 25 l 249 0 l 81 0 l 81 18 q 116 37 108 25 q 125 77 125 49 l 125 683 q 116 723 125 711 q 81 741 107 734 l 81 760 l 328 760 l 328 741 q 293 706 293 730 q 319 657 293 686 l 767 155 l 767 683 q 758 723 767 711 q 724 741 749 734 l 724 760 l 891 760 l 891 741 q 857 723 865 734 q 848 683 848 711 l 848 77 q 856 37 848 49 q 891 18 865 25 l 891 0 l 692 0 l 692 18 q 728 46 728 27 q 695 97 728 60 l 205 641 m 628 1018 l 716 961 l 707 945 q 692 949 697 949 q 675 937 684 949 q 581 872 631 872 q 528 883 557 872 l 431 919 q 404 924 418 924 q 377 912 390 924 q 365 889 365 901 q 374 870 365 882 l 363 858 l 274 919 l 283 931 q 297 928 292 928 q 321 944 309 928 q 421 1001 359 1001 q 460 993 439 1001 l 559 956 q 591 949 576 949 q 616 960 604 949 q 628 984 628 971 q 617 1005 628 994 l 628 1018 z "},"ó":{"ha":1042,"x_min":63,"x_max":979,"o":"m 519 776 q 846 670 722 776 q 979 374 979 558 q 913 164 979 260 q 521 -16 791 -16 q 195 90 319 -16 q 63 380 63 202 q 127 595 63 500 q 319 743 196 696 q 519 776 404 774 m 519 697 q 253 595 354 697 q 165 380 165 507 q 253 164 165 252 q 521 62 354 62 q 789 164 688 62 q 877 376 877 252 q 789 595 877 509 q 519 697 687 696 m 680 1040 l 680 1021 q 646 1003 657 1019 l 558 886 q 554 873 554 880 q 568 863 554 863 q 571 863 569 863 l 571 845 l 454 845 l 454 863 q 474 867 469 863 q 488 888 479 871 l 539 998 q 541 1006 541 1002 q 523 1021 541 1019 l 523 1040 l 680 1040 z "},"ò":{"ha":1042,"x_min":63,"x_max":979,"o":"m 519 776 q 846 670 722 776 q 979 374 979 558 q 913 164 979 260 q 521 -16 791 -16 q 195 90 319 -16 q 63 380 63 202 q 127 595 63 500 q 319 743 196 696 q 519 776 404 774 m 519 697 q 253 595 354 697 q 165 380 165 507 q 253 164 165 252 q 521 62 354 62 q 789 164 688 62 q 877 376 877 252 q 789 595 877 509 q 519 697 687 696 m 366 1040 l 523 1040 l 523 1021 q 505 1006 505 1019 q 507 998 505 1002 l 559 888 q 572 867 566 871 q 592 863 577 863 l 592 845 l 475 845 l 475 863 q 478 863 477 863 q 492 873 492 863 q 488 886 492 880 l 400 1003 q 366 1021 389 1019 l 366 1040 z "},"ô":{"ha":1042,"x_min":63,"x_max":979,"o":"m 519 776 q 846 670 722 776 q 979 374 979 558 q 913 164 979 260 q 521 -16 791 -16 q 195 90 319 -16 q 63 380 63 202 q 127 595 63 500 q 319 743 196 696 q 519 776 404 774 m 519 697 q 253 595 354 697 q 165 380 165 507 q 253 164 165 252 q 521 62 354 62 q 789 164 688 62 q 877 376 877 252 q 789 595 877 509 q 519 697 687 696 m 444 845 l 302 845 l 302 863 q 327 868 319 864 q 351 892 334 873 l 450 993 q 458 1010 458 1001 q 435 1021 458 1021 l 435 1040 l 612 1040 l 612 1021 q 590 1009 590 1019 q 602 990 590 1002 l 717 877 q 749 863 729 864 l 749 845 l 590 845 l 590 863 q 612 873 612 865 q 601 889 612 878 l 517 978 l 430 887 q 423 876 423 880 q 444 863 423 865 l 444 845 z "},"ö":{"ha":1042,"x_min":63,"x_max":979,"o":"m 519 776 q 846 670 722 776 q 979 374 979 558 q 913 164 979 260 q 521 -16 791 -16 q 195 90 319 -16 q 63 380 63 202 q 127 595 63 500 q 319 743 196 696 q 519 776 404 774 m 519 697 q 253 595 354 697 q 165 380 165 507 q 253 164 165 252 q 521 62 354 62 q 789 164 688 62 q 877 376 877 252 q 789 595 877 509 q 519 697 687 696 m 404 994 q 448 976 430 994 q 467 930 467 958 q 448 886 467 905 q 404 868 429 868 q 359 886 377 868 q 340 931 340 905 q 359 976 340 958 q 404 994 377 994 m 646 994 q 691 976 673 994 q 709 930 709 958 q 691 886 709 905 q 646 868 672 868 q 602 886 620 868 q 583 931 583 905 q 602 976 583 958 q 646 994 620 994 z "},"õ":{"ha":1042,"x_min":63,"x_max":979,"o":"m 519 776 q 846 670 722 776 q 979 374 979 558 q 913 164 979 260 q 521 -16 791 -16 q 195 90 319 -16 q 63 380 63 202 q 127 595 63 500 q 319 743 196 696 q 519 776 404 774 m 519 697 q 253 595 354 697 q 165 380 165 507 q 253 164 165 252 q 521 62 354 62 q 789 164 688 62 q 877 376 877 252 q 789 595 877 509 q 519 697 687 696 m 663 1018 l 751 961 l 741 945 q 726 949 732 949 q 709 937 718 949 q 616 872 666 872 q 563 883 592 872 l 465 919 q 438 924 452 924 q 412 912 425 924 q 399 889 399 901 q 408 870 399 882 l 398 858 l 309 919 l 317 931 q 332 928 326 928 q 355 944 344 928 q 456 1001 394 1001 q 495 993 474 1001 l 593 956 q 625 949 610 949 q 651 960 639 949 q 663 984 663 971 q 652 1005 663 994 l 663 1018 z "},"ú":{"ha":910,"x_min":66,"x_max":843,"o":"m 207 683 l 207 293 q 216 169 207 203 q 254 111 224 134 q 463 62 315 62 q 684 122 627 62 q 712 177 705 144 q 719 293 719 210 l 719 683 q 710 723 719 711 q 675 741 701 734 l 675 760 l 843 760 l 843 741 q 808 723 817 734 q 800 683 800 711 l 800 273 q 782 126 800 169 q 673 18 752 53 q 454 -16 593 -16 q 175 58 255 -16 q 123 137 136 93 q 110 273 110 181 l 110 683 q 101 723 110 711 q 66 741 92 734 l 66 760 l 250 760 l 250 741 q 216 723 224 734 q 207 683 207 711 m 612 1040 l 612 1021 q 578 1003 589 1019 l 490 886 q 486 873 486 880 q 500 863 486 863 q 503 863 501 863 l 503 845 l 386 845 l 386 863 q 406 867 401 863 q 420 888 412 871 l 471 998 q 473 1006 473 1002 q 455 1021 473 1019 l 455 1040 l 612 1040 z "},"ù":{"ha":910,"x_min":66,"x_max":843,"o":"m 207 683 l 207 293 q 216 169 207 203 q 254 111 224 134 q 463 62 315 62 q 684 122 627 62 q 712 177 705 144 q 719 293 719 210 l 719 683 q 710 723 719 711 q 675 741 701 734 l 675 760 l 843 760 l 843 741 q 808 723 817 734 q 800 683 800 711 l 800 273 q 782 126 800 169 q 673 18 752 53 q 454 -16 593 -16 q 175 58 255 -16 q 123 137 136 93 q 110 273 110 181 l 110 683 q 101 723 110 711 q 66 741 92 734 l 66 760 l 250 760 l 250 741 q 216 723 224 734 q 207 683 207 711 m 304 1040 l 462 1040 l 462 1021 q 444 1006 444 1019 q 446 998 444 1002 l 498 888 q 511 867 505 871 q 531 863 516 863 l 531 845 l 414 845 l 414 863 q 417 863 416 863 q 431 873 431 863 q 427 886 431 880 l 339 1003 q 304 1021 328 1019 l 304 1040 z "},"û":{"ha":910,"x_min":66,"x_max":843,"o":"m 207 683 l 207 293 q 216 169 207 203 q 254 111 224 134 q 463 62 315 62 q 684 122 627 62 q 712 177 705 144 q 719 293 719 210 l 719 683 q 710 723 719 711 q 675 741 701 734 l 675 760 l 843 760 l 843 741 q 808 723 817 734 q 800 683 800 711 l 800 273 q 782 126 800 169 q 673 18 752 53 q 454 -16 593 -16 q 175 58 255 -16 q 123 137 136 93 q 110 273 110 181 l 110 683 q 101 723 110 711 q 66 741 92 734 l 66 760 l 250 760 l 250 741 q 216 723 224 734 q 207 683 207 711 m 378 845 l 236 845 l 236 863 q 261 868 254 864 q 286 892 269 873 l 385 993 q 393 1010 393 1001 q 369 1021 393 1021 l 369 1040 l 547 1040 l 547 1021 q 524 1009 524 1019 q 536 990 524 1002 l 651 877 q 684 863 663 864 l 684 845 l 524 845 l 524 863 q 547 873 547 865 q 535 889 547 878 l 451 978 l 364 887 q 357 876 357 880 q 378 863 357 865 l 378 845 z "},"ü":{"ha":910,"x_min":66,"x_max":843,"o":"m 207 683 l 207 293 q 216 169 207 203 q 254 111 224 134 q 463 62 315 62 q 684 122 627 62 q 712 177 705 144 q 719 293 719 210 l 719 683 q 710 723 719 711 q 675 741 701 734 l 675 760 l 843 760 l 843 741 q 808 723 817 734 q 800 683 800 711 l 800 273 q 782 126 800 169 q 673 18 752 53 q 454 -16 593 -16 q 175 58 255 -16 q 123 137 136 93 q 110 273 110 181 l 110 683 q 101 723 110 711 q 66 741 92 734 l 66 760 l 250 760 l 250 741 q 216 723 224 734 q 207 683 207 711 m 342 994 q 387 976 368 994 q 405 930 405 958 q 386 886 405 905 q 342 868 368 868 q 297 887 316 868 q 279 931 279 905 q 297 976 279 958 q 342 994 315 994 m 581 994 q 625 976 607 994 q 644 930 644 958 q 625 886 644 905 q 581 868 606 868 q 536 887 554 868 q 517 931 517 905 q 536 976 517 958 q 581 994 554 994 z "},"†":{"ha":840,"x_min":74,"x_max":766,"o":"m 328 1019 l 512 1019 l 512 1000 q 478 983 486 994 q 469 942 470 972 l 450 711 l 694 711 q 726 720 715 711 q 744 754 737 730 l 766 754 l 766 593 l 744 593 q 726 627 737 618 q 694 637 715 637 l 450 637 l 469 -16 q 477 -57 469 -45 q 512 -75 486 -68 l 512 -93 l 328 -93 l 328 -75 q 362 -57 354 -68 q 371 -16 370 -45 l 390 637 l 145 637 q 113 627 124 637 q 96 593 102 618 l 74 593 l 74 754 l 96 754 q 113 720 102 730 q 145 711 124 711 l 390 711 l 371 942 q 361 983 370 972 q 328 1000 353 994 l 328 1019 z "},"°":{"ha":657,"x_min":121,"x_max":537,"o":"m 330 942 q 481 876 418 942 q 537 731 537 817 q 474 584 537 645 q 330 525 414 525 q 174 593 237 525 q 121 732 121 652 q 140 821 121 778 q 192 891 159 863 q 330 942 251 941 m 327 888 q 227 847 270 888 q 177 733 177 800 q 214 632 177 677 q 328 578 258 578 q 433 621 387 578 q 481 730 481 667 q 439 839 481 795 q 327 888 393 888 z "},"¢":{"ha":1000,"x_min":90,"x_max":946,"o":"m 557 780 l 557 146 q 752 203 667 155 q 812 247 787 224 q 837 281 837 270 q 825 316 837 292 l 840 326 l 946 191 l 932 178 q 898 199 907 199 q 882 191 892 199 q 557 68 738 76 l 557 -17 q 566 -49 557 -38 q 600 -66 576 -60 l 600 -88 l 435 -88 l 435 -66 q 469 -49 460 -60 q 479 -17 479 -38 l 479 69 q 284 127 366 79 q 149 255 200 174 q 90 465 90 350 q 189 722 90 616 q 479 856 296 837 l 479 943 q 469 975 479 964 q 435 992 460 985 l 435 1014 l 600 1014 l 600 992 q 566 975 576 985 q 557 943 557 964 l 557 859 q 708 838 640 857 q 852 779 776 820 q 872 772 865 772 q 903 795 886 772 l 920 787 l 835 641 l 819 651 q 824 678 824 668 q 797 710 824 692 q 557 780 699 773 m 479 777 q 300 701 372 760 q 191 469 191 612 q 269 258 191 344 q 479 150 347 172 l 479 777 z "},"£":{"ha":1000,"x_min":186,"x_max":981,"o":"m 671 572 l 671 398 l 650 398 q 632 432 643 422 q 600 441 621 441 l 417 441 q 425 349 425 398 q 402 219 425 274 q 319 100 378 163 q 496 127 418 127 q 644 105 562 127 q 737 90 703 90 q 799 109 774 90 q 824 157 824 129 q 808 195 824 175 l 821 214 l 981 54 l 964 39 q 927 53 941 53 q 885 37 913 53 q 809 1 838 10 q 741 -8 780 -8 q 604 18 704 -8 q 471 34 542 34 q 256 -18 354 34 l 194 102 q 293 207 262 147 q 325 351 325 267 q 315 441 325 385 l 257 441 q 225 432 236 441 q 208 398 214 422 l 186 398 l 186 572 l 208 572 q 225 539 214 549 q 257 530 236 530 l 300 530 l 298 539 q 277 671 277 634 q 332 829 277 758 q 602 942 421 942 q 732 922 677 942 q 865 849 787 903 q 905 824 897 828 q 929 820 914 820 q 952 823 938 820 l 966 806 l 817 677 l 802 694 q 815 722 815 707 q 767 796 815 755 q 611 849 705 849 q 441 798 507 849 q 376 664 376 746 q 397 532 376 634 l 397 530 l 600 530 q 632 539 621 530 q 650 572 643 549 l 671 572 z "},"§":{"ha":853,"x_min":74,"x_max":779,"o":"m 758 954 l 654 804 l 635 817 q 650 854 650 837 q 641 874 650 865 q 601 903 631 884 q 429 954 519 954 q 307 923 355 954 q 258 846 258 892 q 290 782 258 810 q 406 719 321 755 l 572 648 q 724 553 671 605 q 779 425 779 500 q 749 323 779 371 q 651 214 720 275 q 723 83 723 158 q 654 -49 723 3 q 452 -107 576 -107 q 302 -85 369 -107 q 154 -10 235 -64 q 130 0 138 0 q 92 -21 117 0 l 74 -9 l 178 146 l 195 133 q 175 95 175 108 q 254 27 175 73 q 448 -28 347 -28 q 577 0 528 -28 q 626 75 626 28 q 517 187 626 140 l 298 281 q 109 493 109 362 q 144 603 109 549 q 244 697 179 656 q 180 761 199 730 q 161 836 161 793 q 231 972 161 917 q 429 1032 308 1032 q 553 1015 497 1032 q 683 955 608 998 q 708 945 701 945 q 741 966 720 945 l 758 954 m 324 654 q 210 497 210 587 q 253 414 210 449 q 421 326 295 380 l 572 260 q 650 335 623 294 q 677 420 677 376 q 639 502 677 469 q 497 581 602 536 l 324 654 z "},"•":{"ha":926,"x_min":272,"x_max":657,"o":"m 467 663 q 600 607 544 663 q 657 471 657 551 q 600 334 657 391 q 465 278 545 278 q 329 334 385 278 q 272 470 272 391 q 329 607 272 552 q 467 663 386 663 z "},"¶":{"ha":886,"x_min":28,"x_max":821,"o":"m 435 431 l 312 431 q 220 446 271 431 q 138 481 169 460 q 28 685 28 558 q 75 821 28 762 q 146 883 107 861 q 240 914 185 905 q 323 926 309 926 l 821 926 l 821 904 q 786 886 795 897 q 778 846 778 874 l 778 -31 q 786 -71 778 -60 q 821 -90 795 -83 l 821 -111 l 671 -111 l 671 842 l 541 842 l 541 -111 l 391 -111 l 391 -90 q 426 -71 418 -83 q 435 -31 435 -60 l 435 431 z "},"ß":{"ha":1719,"x_min":45,"x_max":1675,"o":"m 804 720 l 729 572 l 713 581 q 716 608 716 600 q 672 647 716 624 q 444 697 578 697 q 261 657 336 697 q 186 544 186 616 q 205 485 186 511 q 256 448 224 459 q 325 434 288 437 q 485 426 362 431 q 640 413 587 422 q 730 382 692 404 q 793 318 770 360 q 816 225 816 275 q 730 58 816 120 q 456 -16 627 -16 q 279 9 372 -16 q 107 80 186 35 q 91 87 96 87 q 60 63 81 87 l 45 73 l 131 218 l 147 208 q 144 197 145 200 q 141 180 141 186 q 210 124 141 161 q 452 62 327 62 q 643 102 567 62 q 701 153 680 121 q 723 220 723 185 q 705 279 723 253 q 656 315 686 304 q 594 329 629 325 q 465 336 560 333 q 305 348 353 341 q 214 370 257 354 q 127 433 160 389 q 94 541 94 479 q 193 712 94 650 q 450 776 294 776 q 736 712 592 776 q 761 703 758 703 q 787 728 772 703 l 804 720 m 1663 720 l 1589 572 l 1572 581 q 1575 608 1575 601 q 1567 625 1575 617 q 1531 647 1558 633 q 1303 697 1438 697 q 1121 657 1196 697 q 1046 544 1046 617 q 1065 485 1046 511 q 1116 448 1084 459 q 1184 434 1147 437 q 1345 426 1221 431 q 1499 413 1447 422 q 1589 382 1552 404 q 1652 318 1629 360 q 1675 225 1675 275 q 1589 58 1675 120 q 1316 -16 1487 -16 q 1138 9 1231 -16 q 967 80 1046 35 q 951 87 956 87 q 920 63 941 87 l 905 73 l 991 218 l 1007 208 q 1004 197 1004 200 q 1000 180 1000 186 q 1069 124 1000 161 q 1312 62 1186 62 q 1502 102 1426 62 q 1560 153 1539 121 q 1582 220 1582 185 q 1564 279 1582 253 q 1516 315 1546 304 q 1454 329 1488 325 q 1324 336 1420 333 q 1165 348 1213 341 q 1074 370 1117 354 q 987 433 1020 389 q 954 541 954 479 q 1053 712 954 650 q 1310 776 1153 776 q 1596 712 1452 776 q 1621 703 1617 703 q 1647 728 1631 703 l 1663 720 z "},"®":{"ha":1265,"x_min":79,"x_max":1186,"o":"m 631 942 q 1025 814 876 942 q 1152 640 1109 743 q 1186 457 1186 555 q 1111 210 1186 325 q 881 26 1028 82 q 632 -16 771 -16 q 239 112 389 -16 q 113 286 156 184 q 79 463 79 370 q 153 717 79 601 q 384 900 235 842 q 631 942 488 940 m 631 888 q 268 760 401 888 q 146 463 146 642 q 268 167 146 285 q 632 38 401 38 q 997 167 864 38 q 1119 457 1119 285 q 997 760 1119 645 q 840 857 924 828 q 631 888 748 888 m 454 431 l 454 237 q 459 215 454 221 q 481 206 465 210 l 481 185 l 352 185 l 352 206 q 374 216 370 210 q 379 237 379 221 l 379 689 q 374 711 379 705 q 352 720 369 717 l 352 741 l 671 741 q 775 734 738 741 q 842 710 813 727 q 910 585 910 670 q 867 481 910 523 q 751 434 823 440 l 892 225 q 931 207 905 206 l 931 185 l 789 185 l 789 207 q 810 214 810 210 q 795 237 810 216 l 667 431 l 454 431 m 454 492 l 682 492 q 794 509 763 492 q 835 585 835 532 q 793 662 835 640 q 676 680 760 680 l 454 680 l 454 492 z "},"©":{"ha":1265,"x_min":79,"x_max":1186,"o":"m 631 942 q 1025 814 876 942 q 1152 640 1109 743 q 1186 457 1186 555 q 1111 210 1186 325 q 881 26 1028 82 q 632 -16 771 -16 q 239 112 389 -16 q 113 286 156 184 q 79 463 79 370 q 153 717 79 601 q 384 900 235 842 q 631 942 488 940 m 631 888 q 268 760 401 888 q 146 463 146 642 q 268 167 146 285 q 632 38 401 38 q 997 167 864 38 q 1119 457 1119 285 q 997 760 1119 645 q 840 857 924 828 q 631 888 748 888 m 940 691 l 873 584 l 854 594 q 859 616 859 609 q 808 653 859 629 q 648 687 734 687 q 460 626 532 687 q 387 466 387 564 q 463 302 387 368 q 645 239 537 239 q 831 298 751 239 q 867 332 867 323 q 858 352 867 338 l 875 365 l 956 271 l 939 258 q 920 270 925 270 q 906 262 916 270 q 646 176 793 176 q 406 254 498 176 q 309 463 309 336 q 370 636 309 562 q 653 751 464 751 q 894 688 781 751 q 902 685 900 685 q 921 701 905 685 l 940 691 z "},"™":{"ha":1296,"x_min":3,"x_max":1240,"o":"m 307 867 l 307 448 q 312 427 307 433 q 333 418 317 422 l 333 398 l 210 398 l 210 418 q 231 428 226 422 q 235 448 235 433 l 235 867 l 55 867 q 34 863 39 867 q 24 843 28 859 l 3 843 l 3 950 l 24 950 q 34 930 28 935 q 55 926 39 926 l 488 926 q 509 930 504 926 q 519 950 515 935 l 540 950 l 540 843 l 519 843 q 510 863 515 859 q 488 867 504 867 l 307 867 m 916 393 l 691 819 l 691 448 q 696 428 691 433 q 717 418 701 422 l 717 398 l 599 398 l 599 418 q 620 428 615 422 q 625 448 625 433 l 625 876 q 620 897 625 891 q 599 905 615 902 l 599 926 l 750 926 l 750 905 q 730 892 730 899 q 743 866 730 890 l 920 532 l 1099 869 q 1107 892 1107 888 q 1088 905 1107 899 l 1088 926 l 1240 926 l 1240 905 q 1219 897 1224 902 q 1215 876 1215 891 l 1215 448 q 1219 428 1215 433 q 1240 418 1224 422 l 1240 398 l 1117 398 l 1117 418 q 1138 427 1133 422 q 1143 448 1143 433 l 1143 820 l 916 393 z "},"´":{"ha":694,"x_min":280,"x_max":507,"o":"m 507 1040 l 507 1021 q 472 1003 484 1019 l 385 886 q 380 873 380 880 q 395 863 380 863 q 397 863 395 863 l 397 845 l 280 845 l 280 863 q 300 867 295 863 q 314 888 306 871 l 366 998 q 368 1006 368 1002 q 349 1021 368 1019 l 349 1040 l 507 1040 z "},"¨":{"ha":694,"x_min":164,"x_max":529,"o":"m 227 994 q 272 976 254 994 q 290 930 290 958 q 272 886 290 905 q 227 868 253 868 q 183 887 201 868 q 164 931 164 905 q 182 976 164 958 q 227 994 201 994 m 466 994 q 511 976 492 994 q 529 930 529 958 q 510 886 529 905 q 466 868 492 868 q 421 887 439 868 q 403 931 403 905 q 421 976 403 958 q 466 994 439 994 z "},"≠":{"ha":1065,"x_min":161,"x_max":904,"o":"m 573 646 l 621 743 q 641 812 641 785 q 627 854 641 832 l 637 876 l 794 800 l 784 778 q 737 760 755 775 q 700 705 719 744 l 671 646 l 777 646 q 843 655 821 646 q 880 689 865 665 l 904 689 l 904 514 l 880 514 q 843 548 865 539 q 777 557 821 557 l 628 557 l 535 368 l 777 368 q 843 378 821 368 q 880 412 866 387 l 904 412 l 904 237 l 880 237 q 843 271 865 262 q 777 280 821 280 l 492 280 l 444 181 q 423 112 423 138 q 438 70 423 93 l 428 50 l 271 126 l 281 146 q 328 165 310 149 q 365 220 346 180 l 395 280 l 287 280 q 221 271 243 280 q 184 237 199 262 l 161 237 l 161 412 l 184 412 q 221 377 199 387 q 287 368 243 368 l 437 368 l 530 557 l 287 557 q 221 548 243 557 q 184 514 199 539 l 161 514 l 161 689 l 184 689 q 221 655 199 664 q 287 646 243 646 l 573 646 z "},"Æ":{"ha":1374,"x_min":-14,"x_max":1319,"o":"m 613 264 l 277 264 l 180 84 q 161 43 161 49 q 193 22 161 26 l 193 0 l -14 0 l -14 22 q 83 110 41 33 l 476 841 q 494 881 494 873 q 465 904 494 898 l 465 926 l 1230 926 q 1270 935 1258 926 q 1288 970 1282 943 l 1310 970 l 1310 795 l 1288 795 q 1270 829 1282 821 q 1230 838 1258 838 l 720 838 l 720 520 l 1028 520 q 1068 529 1057 520 q 1086 564 1080 538 l 1108 564 l 1108 389 l 1086 389 q 1068 423 1080 414 q 1028 432 1057 432 l 720 432 l 720 88 l 1238 88 q 1279 97 1267 88 q 1297 132 1291 106 l 1319 132 l 1319 -43 l 1297 -43 q 1279 -9 1291 -18 q 1238 0 1267 0 l 570 0 l 570 22 q 604 40 595 28 q 613 80 613 52 l 613 264 m 613 352 l 613 836 l 578 836 l 322 352 l 613 352 z "},"Ø":{"ha":1265,"x_min":79,"x_max":1186,"o":"m 921 1019 l 1128 1019 l 1128 998 q 1095 985 1103 992 q 1045 926 1087 979 l 1022 892 l 987 844 q 1186 463 1186 696 q 1111 210 1186 325 q 631 -16 964 -16 q 493 -5 551 -16 q 356 37 435 7 l 345 22 q 309 -44 309 -26 q 340 -71 309 -65 l 340 -94 l 136 -94 l 136 -72 q 250 31 184 -65 l 286 77 q 153 210 199 140 q 79 463 79 326 q 154 716 79 601 q 635 942 301 942 q 911 887 788 942 l 939 922 q 954 966 954 941 q 921 998 954 987 l 921 1019 m 417 115 q 633 77 517 77 q 964 194 843 77 q 1075 463 1075 300 q 1040 630 1075 559 q 926 765 1004 702 l 417 115 m 851 809 q 631 849 749 849 q 300 732 422 849 q 190 463 190 625 q 227 293 190 365 q 347 155 263 220 l 851 809 z "},"∞":{"ha":926,"x_min":26,"x_max":900,"o":"m 465 422 q 399 340 429 371 q 229 264 327 264 q 77 330 134 264 q 26 475 26 388 q 80 620 26 564 q 230 682 139 682 q 462 524 355 682 q 526 604 496 574 q 697 681 600 681 q 852 612 795 681 q 900 471 900 555 q 844 323 900 380 q 697 264 786 264 q 575 300 629 264 q 465 422 522 337 m 500 473 q 594 362 551 395 q 690 330 637 330 q 786 370 748 330 q 823 473 823 410 q 779 581 823 541 q 688 614 741 614 q 543 532 609 614 q 517 497 534 522 q 500 473 500 473 m 425 472 q 332 583 376 550 q 235 615 289 615 q 140 575 177 615 q 103 472 103 535 q 148 364 103 404 q 238 331 186 331 q 383 413 317 331 q 409 447 392 423 q 425 472 426 471 z "},"±":{"ha":1065,"x_min":161,"x_max":904,"o":"m 161 376 l 161 551 l 184 551 q 221 516 199 526 q 287 507 243 507 l 489 507 l 489 707 q 479 773 489 751 q 445 810 469 795 l 445 834 l 620 834 l 620 810 q 586 773 595 795 q 577 707 577 751 l 577 507 l 777 507 q 843 517 821 507 q 880 551 866 526 l 904 551 l 904 376 l 880 376 q 843 410 865 400 q 777 419 821 419 l 577 419 l 577 254 q 586 189 577 210 q 620 151 595 167 l 620 129 l 445 129 l 445 152 q 479 189 470 167 q 489 254 489 211 l 489 419 l 286 419 q 221 410 243 419 q 184 376 199 401 l 161 376 m 161 -87 l 161 87 l 184 87 q 221 53 199 62 q 287 44 243 44 l 777 44 q 843 54 821 44 q 880 87 866 63 l 904 87 l 904 -87 l 880 -87 q 843 -53 865 -62 q 777 -44 821 -44 l 287 -44 q 221 -53 243 -44 q 184 -87 199 -62 l 161 -87 z "},"≤":{"ha":694,"x_min":46,"x_max":648,"o":"m 648 823 l 648 724 l 161 532 l 648 341 l 648 241 l 46 487 l 46 578 l 648 823 m 648 201 l 648 109 l 46 109 l 46 201 l 648 201 z "},"≥":{"ha":694,"x_min":46,"x_max":648,"o":"m 46 823 l 648 578 l 648 487 l 46 241 l 46 341 l 532 532 l 46 724 l 46 823 m 46 201 l 648 201 l 648 109 l 46 109 l 46 201 z "},"¥":{"ha":1000,"x_min":79,"x_max":922,"o":"m 551 317 l 551 80 q 562 40 551 52 q 602 22 572 28 l 602 0 l 408 0 l 408 22 q 448 40 438 28 q 458 80 458 52 l 458 317 l 256 317 q 220 308 232 317 q 199 273 208 298 l 174 273 l 174 448 l 199 448 q 220 414 208 424 q 256 405 232 405 l 452 405 l 351 567 l 210 567 q 174 558 186 567 q 153 524 161 549 l 127 524 l 127 699 l 153 699 q 173 665 161 674 q 210 655 186 655 l 293 655 l 193 802 q 132 876 163 836 q 79 904 109 899 l 79 926 l 307 926 l 307 904 q 281 894 287 899 q 275 876 275 888 q 279 859 275 867 q 307 812 283 850 l 509 488 l 709 823 q 735 864 732 857 q 739 880 739 871 q 709 904 739 897 l 709 926 l 922 926 l 922 904 q 865 875 888 899 q 802 802 811 817 l 707 655 l 790 655 q 827 665 814 655 q 847 699 840 674 l 872 699 l 872 524 l 847 524 q 827 557 840 548 q 790 567 814 567 l 657 567 l 558 405 l 744 405 q 781 414 768 405 q 801 448 793 424 l 826 448 l 826 273 l 801 273 q 781 308 793 298 q 744 317 768 317 l 551 317 z "},"µ":{"ha":616,"x_min":-3,"x_max":630,"o":"m 630 72 l 630 50 l 518 -14 q 512 -15 515 -15 q 484 -5 499 -15 q 463 18 469 5 q 442 102 452 37 q 352 22 381 43 q 227 -20 292 -20 q 132 9 168 -20 q 75 102 95 39 q 75 62 75 73 q 77 -8 75 16 q 93 -128 79 -32 q 100 -195 100 -174 q 85 -244 100 -224 q 49 -263 71 -263 q 12 -245 26 -263 q -3 -199 -3 -227 q 6 -116 -3 -172 q 45 388 45 144 l 45 635 l 142 635 l 142 237 q 150 137 142 170 q 178 79 157 103 q 266 43 210 43 q 355 70 315 43 q 437 155 395 96 l 437 635 l 533 635 l 533 162 q 544 78 533 100 q 588 56 555 56 q 630 72 606 56 z "},"∂":{"ha":694,"x_min":45,"x_max":649,"o":"m 121 849 l 134 930 q 322 882 246 914 q 581 636 496 808 q 649 334 649 500 q 582 99 649 188 q 478 14 541 44 q 345 -17 415 -17 q 133 74 218 -17 q 45 300 45 168 q 106 488 45 406 q 207 573 146 543 q 338 604 269 604 q 484 559 429 604 q 543 496 502 543 l 537 511 q 488 626 506 594 q 431 699 470 658 q 121 849 310 825 m 357 527 q 222 481 280 527 q 160 399 183 449 q 138 296 138 350 q 207 124 138 193 q 351 64 267 64 q 477 113 422 64 q 556 302 556 180 q 490 473 556 410 q 357 527 435 525 z "},"∑":{"ha":926,"x_min":47,"x_max":840,"o":"m 827 1042 l 827 726 l 736 726 l 726 949 l 159 949 l 505 375 l 159 -255 l 739 -255 l 745 -31 l 840 -31 l 840 -347 l 47 -347 l 47 -240 l 387 374 l 47 937 l 47 1042 l 827 1042 z "},"∏":{"ha":926,"x_min":38,"x_max":888,"o":"m 38 1042 l 888 1042 l 888 960 l 785 960 l 785 -265 l 888 -265 l 888 -347 l 588 -347 l 588 -265 l 694 -265 l 694 960 l 231 960 l 231 -265 l 336 -265 l 336 -347 l 38 -347 l 38 -265 l 141 -265 l 141 960 l 38 960 l 38 1042 z "},"π":{"ha":766,"x_min":26,"x_max":739,"o":"m 127 0 l 127 588 l 26 588 l 26 665 l 739 665 l 739 588 l 639 588 l 639 0 l 545 0 l 545 588 l 221 588 l 221 0 l 127 0 z "},"∫":{"ha":694,"x_min":140,"x_max":555,"o":"m 140 -332 l 161 -239 q 215 -254 191 -254 q 285 -213 269 -254 q 294 -82 294 -189 l 294 760 q 306 937 294 897 q 363 1013 319 985 q 468 1042 408 1042 q 555 1027 500 1042 l 534 933 q 478 947 503 947 q 412 911 429 947 q 401 804 401 886 l 401 -89 q 395 -219 401 -184 q 367 -281 389 -254 q 299 -329 342 -311 q 205 -347 255 -347 q 140 -332 184 -347 z "},"ª":{"ha":709,"x_min":130,"x_max":579,"o":"m 181 851 l 130 910 l 153 919 q 165 911 160 911 q 174 914 168 911 q 243 934 199 926 q 326 942 288 942 q 487 903 428 942 q 547 797 547 864 l 547 593 q 553 576 547 581 q 579 568 559 571 l 579 550 l 488 550 l 488 593 q 422 551 454 563 q 342 540 390 540 q 197 579 258 540 q 139 677 139 616 q 197 776 139 737 q 344 815 255 815 q 422 805 391 815 q 488 767 454 794 l 488 803 q 444 872 488 846 q 330 898 401 898 q 244 888 288 898 q 199 870 199 879 q 203 860 199 870 l 181 851 m 349 762 q 231 732 274 762 q 197 674 197 709 q 240 617 197 640 q 347 593 284 593 q 457 623 416 593 q 488 674 488 645 q 450 738 488 713 q 349 762 412 762 m 577 507 l 577 364 l 561 364 q 548 398 555 389 q 525 408 541 408 l 184 408 q 162 398 170 408 q 149 364 154 389 l 133 364 l 133 507 l 149 507 q 162 472 154 481 q 184 463 170 463 l 525 463 q 548 473 540 463 q 561 507 556 482 l 577 507 z "},"º":{"ha":709,"x_min":132,"x_max":577,"o":"m 354 933 q 513 882 452 933 q 577 738 577 827 q 513 599 577 654 q 355 547 452 547 q 197 599 257 547 q 132 741 132 654 q 193 879 132 826 q 354 933 254 932 m 354 888 q 229 841 277 888 q 189 740 189 800 q 229 640 189 681 q 355 592 276 592 q 480 640 433 592 q 521 739 521 681 q 475 846 521 805 q 354 888 429 888 m 577 507 l 577 364 l 561 364 q 548 398 555 389 q 525 408 541 408 l 184 408 q 162 398 170 408 q 149 364 154 389 l 133 364 l 133 507 l 149 507 q 162 472 154 481 q 184 463 170 463 l 525 463 q 548 473 540 463 q 561 507 556 482 l 577 507 z "},"Ω":{"ha":926,"x_min":37,"x_max":889,"o":"m 39 0 l 39 87 l 296 87 q 129 229 195 145 q 37 503 37 346 q 184 843 37 711 q 462 948 302 948 q 747 839 629 948 q 854 684 817 775 q 889 503 889 598 q 823 266 889 371 q 629 87 758 161 l 887 87 l 887 0 l 526 0 l 526 82 q 680 201 624 136 q 788 489 788 328 q 678 768 788 658 q 465 859 589 859 q 247 768 338 859 q 138 488 138 659 q 399 82 138 227 l 399 0 l 39 0 z "},"æ":{"ha":1201,"x_min":38,"x_max":1162,"o":"m 570 217 l 288 217 l 218 86 q 201 43 201 54 q 229 18 201 26 l 229 0 l 38 0 l 38 18 q 92 46 72 27 q 138 111 113 65 l 433 648 q 464 717 464 703 q 437 741 464 735 l 437 760 l 1081 760 q 1121 768 1109 760 q 1139 803 1133 777 l 1158 803 l 1158 642 l 1139 642 q 1121 677 1133 668 q 1081 686 1109 686 l 667 686 l 667 429 l 911 429 q 952 438 940 429 q 970 473 964 447 l 989 473 l 989 311 l 970 311 q 952 347 964 338 q 911 355 940 355 l 667 355 l 667 74 l 1085 74 q 1126 83 1114 74 q 1143 118 1138 92 l 1162 118 l 1162 -43 l 1143 -43 q 1126 -9 1138 -18 q 1086 0 1114 0 l 526 0 l 526 18 q 561 37 552 25 q 570 77 570 49 l 570 217 m 570 291 l 570 684 l 538 684 l 328 291 l 570 291 z "},"ø":{"ha":1042,"x_min":63,"x_max":979,"o":"m 290 28 l 277 12 q 245 -39 245 -28 q 277 -62 245 -57 l 277 -81 l 84 -81 l 85 -62 q 199 23 132 -59 l 230 63 q 63 380 63 185 q 195 670 63 557 q 524 776 319 776 q 634 767 589 776 q 750 731 679 758 l 760 743 q 785 795 785 779 q 752 821 785 812 l 752 840 l 948 840 l 948 821 q 899 798 920 817 q 833 720 877 779 l 814 694 q 899 616 865 660 q 979 380 979 513 q 846 90 979 202 q 517 -16 722 -16 q 290 28 391 -16 m 346 99 q 520 62 429 62 q 789 164 688 62 q 877 380 877 252 q 758 623 877 524 l 346 99 m 286 135 l 696 661 q 605 690 639 683 q 525 697 570 697 q 253 595 353 697 q 165 380 165 507 q 194 246 165 304 q 286 135 222 187 z "},"¿":{"ha":713,"x_min":102,"x_max":667,"o":"m 278 661 l 442 661 l 442 643 q 411 634 418 642 q 402 600 404 626 q 373 473 399 526 q 344 424 358 443 q 258 319 330 406 q 208 207 208 259 q 235 124 208 157 q 359 67 279 67 q 505 127 440 67 q 540 188 540 161 q 526 218 540 198 l 541 233 l 667 98 l 651 83 q 634 94 641 90 q 621 99 625 99 q 597 85 614 99 q 345 -16 477 -16 q 163 52 234 -16 q 102 201 102 113 q 140 321 102 267 q 233 421 160 348 q 293 511 270 459 q 316 610 316 564 q 309 633 316 627 q 278 643 301 640 l 278 661 m 356 942 q 407 920 386 942 q 429 869 429 899 q 407 818 429 839 q 356 796 386 796 q 304 818 325 796 q 283 869 283 839 q 304 920 283 899 q 356 942 326 941 z "},"¡":{"ha":474,"x_min":139,"x_max":335,"o":"m 296 667 l 296 648 q 285 646 288 646 q 259 625 258 640 l 260 618 l 260 608 l 296 50 q 303 27 297 32 q 335 18 309 22 l 335 0 l 139 0 l 139 18 q 151 20 148 20 q 172 28 166 22 q 178 50 178 34 l 214 608 l 214 618 l 215 625 q 210 638 215 635 q 178 648 205 642 l 178 667 l 296 667 m 237 941 q 289 920 267 941 q 311 866 311 898 q 289 815 311 836 q 237 793 267 793 q 184 815 206 793 q 163 867 163 837 q 184 919 163 898 q 237 941 205 941 z "},"¬":{"ha":694,"x_min":46,"x_max":648,"o":"m 545 0 l 545 292 l 46 292 l 46 385 l 648 385 l 648 0 l 545 0 z "},"√":{"ha":926,"x_min":0,"x_max":926,"o":"m 926 1148 l 926 1064 l 656 1064 l 338 0 l 231 0 l 110 412 l 0 412 l 0 496 l 170 496 l 230 298 q 252 214 236 279 q 277 111 272 131 l 281 111 q 315 236 288 138 l 353 378 l 422 610 l 583 1148 l 926 1148 z "},"ƒ":{"ha":1000,"x_min":-3,"x_max":1004,"o":"m -3 -23 l 104 138 l 120 130 q 114 107 114 117 q 143 42 114 70 q 211 15 172 15 q 294 34 253 15 q 359 83 336 54 q 402 211 383 115 l 456 488 l 401 488 q 368 478 380 488 q 343 445 355 469 l 321 445 l 355 619 l 378 619 q 389 585 380 595 q 418 576 397 576 l 474 576 l 505 734 q 585 907 529 855 q 683 967 624 945 q 801 989 742 989 q 942 936 882 989 q 954 931 948 931 q 989 956 969 931 l 1004 949 l 897 789 l 881 796 q 892 833 892 824 q 880 865 892 848 q 791 911 848 911 q 706 892 748 911 q 642 843 665 873 q 599 715 618 811 l 571 576 l 715 576 q 749 586 736 576 q 773 619 762 595 l 795 619 l 761 445 l 739 445 q 728 478 737 469 q 699 488 720 488 l 554 488 l 496 192 q 416 18 471 71 q 317 -41 376 -19 q 199 -64 258 -64 q 58 -15 117 -64 q 46 -10 53 -10 q 12 -31 31 -10 l -3 -23 z "},"≈":{"ha":694,"x_min":15,"x_max":680,"o":"m 72 483 l 15 522 q 69 610 42 578 q 202 677 125 677 q 359 623 254 677 q 444 584 418 593 q 496 575 470 575 q 562 597 533 575 q 623 674 591 620 l 680 635 q 622 543 651 576 q 494 480 568 480 q 433 491 465 480 q 335 535 401 503 q 197 582 241 582 q 133 559 161 582 q 72 483 104 537 m 72 249 l 15 288 q 70 376 42 342 q 202 442 125 442 q 359 389 254 442 q 444 350 418 359 q 496 341 470 341 q 562 363 533 341 q 623 439 591 385 l 680 401 q 622 309 651 342 q 494 245 568 245 q 433 257 465 245 q 335 300 401 268 q 197 347 241 347 q 133 325 161 347 q 72 249 104 302 z "},"∆":{"ha":862,"x_min":8,"x_max":853,"o":"m 8 0 l 378 926 l 481 926 l 853 0 l 8 0 m 138 87 l 721 87 l 431 817 l 138 87 z "},"«":{"ha":694,"x_min":102,"x_max":574,"o":"m 234 108 l 102 380 l 234 651 l 328 651 l 195 380 l 328 108 l 234 108 m 480 108 l 348 380 l 480 651 l 574 651 l 440 380 l 574 108 l 480 108 z "},"»":{"ha":694,"x_min":120,"x_max":592,"o":"m 460 108 l 366 108 l 499 380 l 366 651 l 460 651 l 592 380 l 460 108 m 214 108 l 120 108 l 254 380 l 120 651 l 214 651 l 346 380 l 214 108 z "},"…":{"ha":1166,"x_min":120,"x_max":1046,"o":"m 194 132 q 247 110 225 132 q 268 57 268 88 q 246 5 268 27 q 194 -16 224 -16 q 142 6 163 -16 q 120 58 120 28 q 141 110 120 88 q 194 132 163 131 m 583 132 q 635 110 614 132 q 656 57 656 88 q 634 5 656 27 q 583 -16 612 -16 q 530 5 552 -16 q 509 58 509 27 q 530 110 509 88 q 583 132 551 131 m 972 132 q 1024 110 1003 132 q 1046 57 1046 88 q 1024 5 1046 27 q 972 -16 1002 -16 q 920 5 941 -16 q 898 58 898 27 q 919 110 898 88 q 972 132 941 131 z "},"À":{"ha":1024,"x_min":4,"x_max":1029,"o":"m 759 260 l 263 260 l 182 84 q 170 49 170 59 q 210 22 170 28 l 210 0 l 4 0 l 4 22 q 46 42 32 26 q 85 110 61 58 l 424 842 q 436 878 436 868 q 403 904 436 895 l 403 926 l 628 926 l 628 904 q 595 876 595 893 q 607 842 595 868 l 932 136 q 979 45 968 58 q 1029 22 991 31 l 1029 0 l 810 0 l 810 22 q 849 52 849 27 q 834 94 849 62 l 759 260 m 719 348 l 511 805 l 303 348 l 719 348 m 353 1197 l 510 1197 l 510 1179 q 492 1164 492 1177 q 494 1156 492 1160 l 546 1045 q 559 1025 553 1029 q 579 1021 564 1021 l 579 1002 l 462 1002 l 462 1021 q 465 1021 464 1021 q 479 1031 479 1021 q 475 1043 479 1037 l 387 1160 q 353 1179 376 1177 l 353 1197 z "},"Ã":{"ha":1024,"x_min":4,"x_max":1029,"o":"m 759 260 l 263 260 l 182 84 q 170 49 170 59 q 210 22 170 28 l 210 0 l 4 0 l 4 22 q 46 42 32 26 q 85 110 61 58 l 424 842 q 436 878 436 868 q 403 904 436 895 l 403 926 l 628 926 l 628 904 q 595 876 595 893 q 607 842 595 868 l 932 136 q 979 45 968 58 q 1029 22 991 31 l 1029 0 l 810 0 l 810 22 q 849 52 849 27 q 834 94 849 62 l 759 260 m 719 348 l 511 805 l 303 348 l 719 348 m 650 1175 l 738 1118 l 728 1103 q 713 1107 719 1107 q 696 1095 705 1107 q 603 1030 653 1030 q 550 1040 578 1030 l 452 1076 q 425 1081 440 1081 q 399 1070 412 1081 q 387 1046 387 1059 q 395 1027 386 1040 l 385 1015 l 296 1076 l 304 1088 q 319 1086 314 1086 q 342 1101 331 1086 q 443 1158 382 1158 q 482 1151 462 1158 l 581 1114 q 612 1107 597 1107 q 638 1118 626 1107 q 650 1142 650 1129 q 639 1162 650 1152 l 650 1175 z "},"Õ":{"ha":1265,"x_min":79,"x_max":1186,"o":"m 631 942 q 1025 814 876 942 q 1152 640 1109 743 q 1186 457 1186 555 q 1111 210 1186 325 q 881 26 1028 82 q 632 -16 771 -16 q 239 112 389 -16 q 113 286 156 184 q 79 463 79 370 q 153 717 79 601 q 384 900 235 842 q 631 942 488 940 m 631 849 q 301 732 422 849 q 190 463 190 625 q 301 193 190 300 q 632 77 422 77 q 964 193 843 77 q 1075 458 1075 300 q 964 732 1075 628 q 822 820 898 795 q 631 849 738 848 m 774 1175 l 863 1118 l 853 1103 q 838 1107 844 1107 q 821 1095 830 1107 q 728 1030 778 1030 q 675 1040 703 1030 l 577 1076 q 550 1081 565 1081 q 524 1070 536 1081 q 511 1046 512 1059 q 520 1027 511 1040 l 510 1015 l 420 1076 l 429 1088 q 444 1086 439 1086 q 467 1101 456 1086 q 568 1158 507 1158 q 607 1151 587 1158 l 705 1114 q 737 1107 722 1107 q 763 1118 751 1107 q 774 1142 774 1129 q 764 1162 774 1152 l 774 1175 z "},"Œ":{"ha":1482,"x_min":79,"x_max":1427,"o":"m 827 432 l 827 88 l 1347 88 q 1387 97 1375 88 q 1405 132 1399 106 l 1427 132 l 1427 -43 l 1406 -43 q 1387 -9 1399 -18 q 1348 0 1375 0 l 825 0 q 767 -2 822 1 q 629 -7 677 -7 q 268 92 407 -7 q 132 244 181 154 q 79 463 79 344 q 178 751 79 629 q 408 904 268 861 q 631 933 501 933 l 825 926 l 1338 926 q 1378 935 1367 926 q 1396 970 1390 943 l 1418 970 l 1418 795 l 1396 795 q 1378 829 1390 820 q 1338 838 1367 838 l 827 838 l 827 520 l 1137 520 q 1177 529 1165 520 q 1195 564 1189 538 l 1217 564 l 1217 389 l 1195 389 q 1177 423 1189 414 q 1137 432 1165 432 l 827 432 m 721 838 q 634 840 672 840 q 325 750 438 840 q 228 628 264 701 q 190 463 190 550 q 260 245 190 342 q 634 86 376 86 q 721 88 665 86 l 721 838 z "},"œ":{"ha":1179,"x_min":39,"x_max":1140,"o":"m 644 355 l 644 74 l 1063 74 q 1103 83 1091 74 q 1121 118 1115 92 l 1140 118 l 1140 -43 l 1121 -43 q 1103 -9 1115 -18 q 1063 0 1092 0 l 682 0 q 562 -4 633 0 q 486 -7 518 -7 q 186 85 305 -7 q 77 218 116 139 q 39 380 39 296 q 113 600 39 500 q 487 766 237 766 q 562 764 519 766 q 682 760 635 760 l 1059 760 q 1099 768 1087 760 q 1117 803 1110 777 l 1135 803 l 1135 642 l 1117 642 q 1099 677 1111 668 q 1059 686 1087 686 l 644 686 l 644 429 l 889 429 q 929 438 918 429 q 948 473 941 447 l 966 473 l 966 311 l 948 311 q 929 347 941 338 q 889 355 918 355 l 644 355 m 547 686 q 494 688 515 688 q 243 609 338 688 q 140 380 140 524 q 243 151 140 235 q 492 72 338 72 q 547 74 516 72 l 547 686 z "},"–":{"ha":1065,"x_min":58,"x_max":1008,"o":"m 1008 467 l 1008 292 l 983 292 q 963 326 975 317 q 926 336 951 336 l 140 336 q 103 326 115 336 q 83 292 91 317 l 58 292 l 58 467 l 83 467 q 103 433 91 443 q 140 424 115 424 l 926 424 q 963 433 951 424 q 983 467 975 443 l 1008 467 z "},"—":{"ha":824,"x_min":0,"x_max":824,"o":"m 824 467 l 824 292 l 799 292 q 779 326 791 317 q 742 336 766 336 l 82 336 q 45 326 58 336 q 25 292 33 317 l 0 292 l 0 467 l 25 467 q 45 433 33 443 q 82 424 58 424 l 742 424 q 779 433 766 424 q 799 467 791 443 l 824 467 z "},"“":{"ha":657,"x_min":120,"x_max":536,"o":"m 242 942 l 263 918 q 197 864 218 890 q 170 797 177 837 q 199 801 189 801 q 249 781 231 801 q 268 728 268 761 q 248 674 268 695 q 197 652 228 652 q 141 682 161 652 q 120 760 120 711 q 149 862 120 819 q 242 942 178 905 m 511 942 l 532 918 q 466 864 486 890 q 439 797 446 837 q 468 801 458 801 q 518 781 499 801 q 536 728 536 761 q 516 674 536 695 q 465 652 496 652 q 410 682 431 652 q 389 760 389 711 q 417 862 389 819 q 511 942 446 905 z "},"”":{"ha":657,"x_min":120,"x_max":537,"o":"m 146 652 l 125 676 q 191 731 170 704 q 218 798 211 758 q 189 793 199 793 q 139 813 158 793 q 120 866 120 833 q 140 921 120 899 q 191 942 160 942 q 248 913 227 942 q 269 835 269 884 q 240 732 269 774 q 146 652 211 689 m 414 652 l 393 676 q 459 731 439 704 q 486 798 479 758 q 458 793 468 793 q 407 813 426 793 q 389 866 389 833 q 409 921 389 899 q 460 942 429 942 q 516 913 495 942 q 537 835 537 884 q 508 732 537 774 q 414 652 479 689 z "},"‘":{"ha":389,"x_min":120,"x_max":268,"o":"m 242 942 l 263 918 q 197 864 218 890 q 170 797 177 837 q 199 801 189 801 q 249 781 231 801 q 268 728 268 761 q 248 674 268 695 q 197 652 228 652 q 141 682 161 652 q 120 760 120 711 q 149 862 120 819 q 242 942 178 905 z "},"’":{"ha":389,"x_min":120,"x_max":269,"o":"m 146 652 l 125 676 q 191 731 170 704 q 218 798 211 758 q 189 793 199 793 q 139 813 158 793 q 120 866 120 833 q 140 921 120 899 q 191 942 160 942 q 248 913 227 942 q 269 835 269 884 q 240 732 269 774 q 146 652 211 689 z "},"÷":{"ha":1065,"x_min":161,"x_max":904,"o":"m 161 376 l 161 551 l 184 551 q 221 516 199 526 q 287 507 243 507 l 777 507 q 843 517 821 507 q 880 551 865 526 l 904 551 l 904 376 l 880 376 q 843 410 865 401 q 777 419 821 419 l 287 419 q 221 410 243 419 q 184 376 199 401 l 161 376 m 532 250 q 590 227 566 250 q 614 168 614 203 q 590 111 614 135 q 532 87 566 87 q 475 112 499 87 q 451 170 451 136 q 474 226 451 203 q 532 250 498 250 m 532 838 q 590 814 566 838 q 614 756 614 791 q 590 699 614 723 q 532 675 566 675 q 475 700 499 675 q 451 758 451 724 q 474 814 451 791 q 532 838 498 838 z "},"◊":{"ha":926,"x_min":102,"x_max":824,"o":"m 463 962 l 824 463 l 463 -36 l 102 463 l 463 962 m 463 839 l 189 463 l 463 87 l 736 463 l 463 839 z "},"ÿ":{"ha":755,"x_min":-8,"x_max":762,"o":"m 434 335 l 434 77 q 443 37 434 49 q 477 18 451 25 l 477 0 l 294 0 l 294 18 q 328 37 319 25 q 337 77 337 49 l 337 335 l 103 640 q 40 715 60 696 q -8 741 20 733 l -8 760 l 206 760 l 206 741 q 176 715 176 736 q 195 673 176 696 l 395 410 l 576 672 q 595 714 595 700 q 564 741 595 737 l 564 760 l 762 760 l 762 741 q 706 706 732 731 q 635 619 680 682 l 434 335 m 265 994 q 310 976 292 994 q 328 930 328 958 q 310 886 328 905 q 265 868 291 868 q 221 887 239 868 q 202 931 202 905 q 220 976 202 958 q 265 994 239 994 m 504 994 q 549 976 530 994 q 567 930 567 958 q 548 886 567 905 q 504 868 530 868 q 459 887 477 868 q 441 931 441 905 q 459 976 441 958 q 504 994 477 994 z "},"Ÿ":{"ha":904,"x_min":-10,"x_max":913,"o":"m 509 410 l 509 80 q 518 40 509 52 q 553 22 527 28 l 553 0 l 359 0 l 359 22 q 394 40 385 28 q 403 80 403 52 l 403 410 l 104 802 q 36 882 55 865 q -10 904 18 899 l -10 926 l 224 926 l 224 904 q 193 878 193 896 q 224 812 193 855 l 460 492 l 694 823 q 724 880 724 865 q 694 904 724 897 l 694 926 l 913 926 l 913 904 q 856 874 880 898 q 793 802 807 823 l 509 410 m 341 1152 q 386 1133 368 1152 q 404 1088 404 1115 q 386 1044 404 1062 q 341 1025 367 1025 q 297 1044 315 1025 q 278 1088 278 1063 q 296 1133 278 1115 q 341 1152 315 1151 m 580 1152 q 625 1133 606 1152 q 643 1088 643 1115 q 624 1044 643 1062 q 580 1025 606 1025 q 535 1044 554 1025 q 517 1088 517 1062 q 535 1133 517 1115 q 580 1152 553 1151 z "},"∕":{"ha":345,"x_min":-139,"x_max":484,"o":"m 269 926 l 484 926 l 484 907 q 395 823 437 904 l 56 103 q 35 47 35 56 q 79 19 35 23 l 79 0 l -139 0 l -139 19 q -52 103 -93 22 l 294 823 q 315 879 315 868 q 269 907 315 904 l 269 926 z "},"¤":{"ha":981,"x_min":16,"x_max":966,"o":"m 821 216 l 905 123 q 924 113 913 113 q 955 128 935 113 l 966 116 l 854 -7 l 844 4 q 857 39 857 26 q 848 60 857 51 l 762 156 q 490 67 652 67 q 219 153 328 67 l 132 57 q 123 35 123 47 q 137 1 123 23 l 127 -11 l 16 113 l 26 124 q 57 109 47 109 q 76 119 68 109 l 160 212 q 77 463 77 319 q 165 721 77 612 l 82 814 q 62 823 73 823 q 31 808 52 823 l 22 819 l 133 943 l 143 932 q 130 897 130 907 q 138 876 130 885 l 226 779 q 490 859 332 859 q 759 773 649 859 l 846 869 q 854 890 854 879 q 841 925 854 903 l 851 937 l 962 813 l 952 802 q 921 817 932 817 q 901 807 910 817 l 818 714 q 901 463 901 607 q 821 216 901 324 m 488 780 q 248 679 340 780 q 169 463 169 591 q 248 248 169 335 q 489 146 339 146 q 730 248 640 146 q 810 459 810 335 q 730 679 810 593 q 488 780 638 779 z "},"‹":{"ha":448,"x_min":102,"x_max":328,"o":"m 234 108 l 102 380 l 234 651 l 328 651 l 195 380 l 328 108 l 234 108 z "},"›":{"ha":448,"x_min":120,"x_max":346,"o":"m 214 108 l 120 108 l 254 380 l 120 651 l 214 651 l 346 380 l 214 108 z "},"":{"ha":1166,"x_min":81,"x_max":1085,"o":"m 222 356 l 222 77 q 231 37 222 49 q 265 18 239 25 l 265 0 l 81 0 l 81 18 q 116 37 107 25 q 125 77 125 49 l 125 683 q 116 723 125 711 q 81 741 107 734 l 81 760 l 699 760 q 738 768 726 760 q 757 803 750 777 l 775 803 l 775 642 l 757 642 q 738 677 750 668 q 699 686 726 686 l 222 686 l 222 430 l 532 430 q 572 439 560 430 q 590 474 583 448 l 608 474 l 608 313 l 590 313 q 572 347 583 338 q 532 356 560 356 l 222 356 m 945 77 l 945 683 q 936 723 945 711 q 901 741 927 734 l 901 760 l 1085 760 l 1085 741 q 1050 723 1059 734 q 1042 683 1042 711 l 1042 77 q 1050 37 1042 49 q 1085 18 1059 25 l 1085 0 l 901 0 l 901 18 q 936 37 927 25 q 945 77 945 49 z "},"":{"ha":1596,"x_min":81,"x_max":1581,"o":"m 222 356 l 222 77 q 231 37 222 49 q 265 18 239 25 l 265 0 l 81 0 l 81 18 q 116 37 107 25 q 125 77 125 49 l 125 683 q 116 723 125 711 q 81 741 107 734 l 81 760 l 699 760 q 739 768 727 760 q 757 803 750 777 l 775 803 l 775 642 l 757 642 q 738 677 750 668 q 699 686 726 686 l 222 686 l 222 430 l 532 430 q 571 439 559 430 q 590 474 583 448 l 608 474 l 608 313 l 590 313 q 571 347 583 338 q 532 356 559 356 l 222 356 m 1042 74 l 1505 74 q 1545 83 1533 74 q 1563 118 1556 92 l 1581 118 l 1581 -43 l 1563 -43 q 1545 -9 1556 -18 q 1505 0 1533 0 l 901 0 l 901 18 q 936 37 927 25 q 945 77 945 49 l 945 683 q 936 723 945 711 q 901 741 927 734 l 901 760 l 1085 760 l 1085 741 q 1050 723 1059 734 q 1042 683 1042 711 l 1042 74 z "},"‡":{"ha":840,"x_min":74,"x_max":766,"o":"m 328 1019 l 512 1019 l 512 1000 q 478 983 486 994 q 469 942 470 972 l 450 748 l 694 748 q 726 758 715 748 q 744 791 737 767 l 766 791 l 766 630 l 744 630 q 726 665 737 655 q 694 674 715 674 l 450 674 l 459 382 l 694 382 q 726 391 715 382 q 744 426 737 401 l 766 426 l 766 264 l 744 264 q 726 298 737 289 q 694 308 715 308 l 459 308 l 469 -16 q 478 -57 469 -45 q 512 -75 486 -68 l 512 -93 l 328 -93 l 328 -75 q 362 -57 353 -68 q 371 -16 370 -45 l 380 308 l 145 308 q 113 298 124 308 q 96 264 102 289 l 74 264 l 74 426 l 96 426 q 113 391 102 401 q 145 382 123 382 l 380 382 l 390 674 l 145 674 q 113 665 124 674 q 96 630 102 655 l 74 630 l 74 791 l 96 791 q 113 758 102 767 q 145 748 124 748 l 390 748 l 371 942 q 361 983 370 972 q 328 1000 353 994 l 328 1019 z "},"∙":{"ha":389,"x_min":120,"x_max":268,"o":"m 194 454 q 247 432 225 454 q 268 379 268 410 q 246 328 268 349 q 194 306 224 306 q 142 328 163 306 q 120 380 120 350 q 141 432 120 410 q 194 454 163 453 z "},"‚":{"ha":389,"x_min":120,"x_max":269,"o":"m 146 -157 l 125 -134 q 191 -79 170 -106 q 218 -12 211 -52 q 189 -16 199 -16 q 139 4 158 -16 q 120 56 120 24 q 140 111 120 90 q 191 132 160 132 q 248 103 227 132 q 269 25 269 74 q 240 -78 269 -35 q 146 -157 211 -121 z "},"„":{"ha":657,"x_min":120,"x_max":537,"o":"m 146 -157 l 125 -134 q 191 -79 170 -106 q 218 -12 211 -52 q 189 -16 199 -16 q 139 4 158 -16 q 120 56 120 24 q 140 111 120 90 q 191 132 160 132 q 248 103 227 132 q 269 25 269 74 q 240 -78 269 -35 q 146 -157 211 -121 m 414 -157 l 393 -134 q 459 -79 439 -106 q 486 -12 479 -52 q 458 -16 468 -16 q 407 4 426 -16 q 389 56 389 24 q 409 111 389 90 q 460 132 429 132 q 516 103 495 132 q 537 25 537 74 q 508 -78 537 -35 q 414 -157 479 -121 z "},"‰":{"ha":1823,"x_min":46,"x_max":1777,"o":"m 286 935 q 449 874 381 935 q 528 691 528 804 q 507 594 528 642 q 449 514 486 547 q 287 453 381 453 q 125 514 193 453 q 46 694 46 585 q 67 794 46 745 q 125 874 88 842 q 286 935 193 934 m 286 880 q 166 829 215 880 q 115 694 115 777 q 164 561 115 613 q 287 508 212 508 q 408 559 359 508 q 458 691 458 612 q 411 827 458 774 q 286 880 363 880 m 385 18 l 385 0 l 194 0 l 194 19 q 307 103 241 22 l 863 823 q 902 884 902 873 q 870 907 902 901 l 870 926 l 1055 926 l 1055 907 q 942 823 1008 904 l 391 102 q 352 41 352 52 q 385 18 352 24 m 961 473 q 1124 412 1056 473 q 1202 229 1202 341 q 1181 132 1202 179 q 1124 52 1160 84 q 962 -9 1056 -9 q 800 52 867 -9 q 721 231 721 123 q 742 331 721 283 q 800 412 763 380 q 961 473 868 471 m 961 418 q 841 367 890 418 q 790 231 790 314 q 839 98 790 151 q 962 45 887 45 q 1082 96 1034 45 q 1133 229 1133 150 q 1085 365 1133 312 q 961 418 1038 417 m 1535 473 q 1698 412 1630 473 q 1777 229 1777 341 q 1756 132 1777 179 q 1698 52 1735 84 q 1536 -9 1630 -9 q 1374 52 1442 -9 q 1295 231 1295 123 q 1316 331 1295 283 q 1374 412 1337 380 q 1535 473 1442 471 m 1535 418 q 1415 367 1464 418 q 1364 231 1364 314 q 1413 98 1364 151 q 1536 45 1461 45 q 1657 96 1609 45 q 1708 229 1708 150 q 1660 365 1708 312 q 1535 418 1612 417 z "},"Â":{"ha":1024,"x_min":4,"x_max":1029,"o":"m 759 260 l 263 260 l 182 84 q 170 49 170 59 q 210 22 170 28 l 210 0 l 4 0 l 4 22 q 46 42 32 26 q 85 110 61 58 l 424 842 q 436 878 436 868 q 403 904 436 895 l 403 926 l 628 926 l 628 904 q 595 876 595 893 q 607 842 595 868 l 932 136 q 979 45 968 58 q 1029 22 991 31 l 1029 0 l 810 0 l 810 22 q 849 52 849 27 q 834 94 849 62 l 759 260 m 719 348 l 511 805 l 303 348 l 719 348 m 435 1002 l 293 1002 l 293 1021 q 318 1026 311 1021 q 342 1049 326 1030 l 441 1150 q 450 1167 450 1158 q 426 1179 450 1179 l 426 1197 l 604 1197 l 604 1179 q 581 1166 581 1176 q 593 1147 581 1159 l 708 1034 q 741 1021 720 1021 l 741 1002 l 581 1002 l 581 1021 q 604 1031 604 1023 q 592 1046 604 1035 l 508 1135 l 421 1044 q 414 1032 414 1038 q 435 1021 414 1022 l 435 1002 z "},"Ê":{"ha":1000,"x_min":102,"x_max":925,"o":"m 252 432 l 252 88 l 845 88 q 885 97 873 88 q 903 132 897 106 l 925 132 l 925 -43 l 904 -43 q 885 -9 897 -18 q 845 0 873 0 l 102 0 l 102 22 q 137 40 128 28 q 145 80 145 52 l 145 846 q 136 886 145 874 q 102 904 127 897 l 102 926 l 836 926 q 876 935 865 926 q 895 970 888 943 l 916 970 l 916 795 l 895 795 q 877 829 888 820 q 836 838 865 838 l 252 838 l 252 520 l 635 520 q 675 529 663 520 q 693 564 687 538 l 715 564 l 715 389 l 693 389 q 675 423 687 414 q 635 432 663 432 l 252 432 m 441 1002 l 299 1002 l 299 1021 q 324 1026 317 1021 q 349 1049 332 1030 l 448 1150 q 456 1167 456 1158 q 432 1179 456 1179 l 432 1197 l 610 1197 l 610 1179 q 587 1166 587 1176 q 600 1147 587 1159 l 714 1034 q 747 1021 726 1021 l 747 1002 l 587 1002 l 587 1021 q 610 1031 610 1023 q 598 1046 610 1035 l 514 1135 l 427 1044 q 420 1032 420 1038 q 441 1021 420 1022 l 441 1002 z "},"Á":{"ha":1024,"x_min":4,"x_max":1029,"o":"m 759 260 l 263 260 l 182 84 q 170 49 170 59 q 210 22 170 28 l 210 0 l 4 0 l 4 22 q 46 42 32 26 q 85 110 61 58 l 424 842 q 436 878 436 868 q 403 904 436 895 l 403 926 l 628 926 l 628 904 q 595 876 595 893 q 607 842 595 868 l 932 136 q 979 45 968 58 q 1029 22 991 31 l 1029 0 l 810 0 l 810 22 q 849 52 849 27 q 834 94 849 62 l 759 260 m 719 348 l 511 805 l 303 348 l 719 348 m 671 1197 l 671 1179 q 637 1160 648 1177 l 549 1043 q 545 1031 545 1037 q 559 1021 545 1021 q 562 1021 560 1021 l 562 1002 l 445 1002 l 445 1021 q 465 1025 460 1021 q 479 1045 471 1029 l 530 1156 q 532 1164 532 1160 q 514 1179 532 1177 l 514 1197 l 671 1197 z "},"Ë":{"ha":1000,"x_min":102,"x_max":925,"o":"m 252 432 l 252 88 l 845 88 q 885 97 873 88 q 903 132 897 106 l 925 132 l 925 -43 l 904 -43 q 885 -9 897 -18 q 845 0 873 0 l 102 0 l 102 22 q 137 40 128 28 q 145 80 145 52 l 145 846 q 136 886 145 874 q 102 904 127 897 l 102 926 l 836 926 q 876 935 865 926 q 895 970 888 943 l 916 970 l 916 795 l 895 795 q 877 829 888 820 q 836 838 865 838 l 252 838 l 252 520 l 635 520 q 675 529 663 520 q 693 564 687 538 l 715 564 l 715 389 l 693 389 q 675 423 687 414 q 635 432 663 432 l 252 432 m 403 1152 q 448 1133 429 1152 q 466 1088 466 1115 q 447 1044 466 1062 q 403 1025 429 1025 q 358 1044 376 1025 q 340 1088 340 1062 q 358 1133 340 1115 q 403 1152 376 1151 m 642 1152 q 686 1133 668 1152 q 705 1088 705 1115 q 686 1044 705 1062 q 642 1025 667 1025 q 597 1044 615 1025 q 578 1088 578 1062 q 597 1133 578 1115 q 642 1152 615 1151 z "},"È":{"ha":1000,"x_min":102,"x_max":925,"o":"m 252 432 l 252 88 l 845 88 q 885 97 873 88 q 903 132 897 106 l 925 132 l 925 -43 l 904 -43 q 885 -9 897 -18 q 845 0 873 0 l 102 0 l 102 22 q 137 40 128 28 q 145 80 145 52 l 145 846 q 136 886 145 874 q 102 904 127 897 l 102 926 l 836 926 q 876 935 865 926 q 895 970 888 943 l 916 970 l 916 795 l 895 795 q 877 829 888 820 q 836 838 865 838 l 252 838 l 252 520 l 635 520 q 675 529 663 520 q 693 564 687 538 l 715 564 l 715 389 l 693 389 q 675 423 687 414 q 635 432 663 432 l 252 432 m 368 1197 l 525 1197 l 525 1179 q 507 1164 507 1177 q 509 1156 507 1160 l 561 1045 q 574 1025 568 1029 q 594 1021 579 1021 l 594 1002 l 477 1002 l 477 1021 q 480 1021 479 1021 q 494 1031 494 1021 q 490 1043 494 1037 l 402 1160 q 368 1179 391 1177 l 368 1197 z "},"Í":{"ha":397,"x_min":102,"x_max":363,"o":"m 145 80 l 145 846 q 136 886 145 874 q 102 904 127 898 l 102 926 l 295 926 l 295 904 q 260 886 269 897 q 252 846 252 874 l 252 80 q 260 40 252 52 q 295 22 269 28 l 295 0 l 102 0 l 102 22 q 137 40 128 28 q 145 80 145 52 m 363 1197 l 363 1179 q 328 1160 340 1177 l 241 1043 q 237 1031 237 1037 q 251 1021 237 1021 q 254 1021 252 1021 l 254 1002 l 136 1002 l 136 1021 q 157 1025 151 1021 q 170 1045 162 1029 l 222 1156 q 224 1164 224 1160 q 205 1179 224 1177 l 205 1197 l 363 1197 z "},"Î":{"ha":397,"x_min":3,"x_max":395,"o":"m 146 80 l 146 846 q 137 886 146 874 q 102 904 128 897 l 102 926 l 296 926 l 296 904 q 261 886 270 898 q 252 846 252 874 l 252 80 q 261 40 252 52 q 296 22 269 28 l 296 0 l 102 0 l 102 22 q 137 40 129 28 q 146 80 146 52 m 140 1002 l 3 1002 l 3 1021 q 52 1049 30 1021 l 123 1150 q 132 1167 132 1162 q 108 1179 132 1179 l 108 1197 l 286 1197 l 286 1179 q 264 1166 264 1177 q 273 1147 264 1160 l 357 1034 q 395 1021 379 1021 l 395 1002 l 240 1002 l 240 1021 q 262 1031 262 1023 q 258 1040 262 1035 q 251 1047 252 1045 l 190 1140 l 126 1045 q 119 1033 119 1035 q 140 1021 119 1022 l 140 1002 z "},"Ï":{"ha":397,"x_min":43,"x_max":353,"o":"m 145 80 l 145 846 q 136 886 145 874 q 102 904 127 898 l 102 926 l 295 926 l 295 904 q 260 886 269 897 q 252 846 252 874 l 252 80 q 260 40 252 52 q 295 22 269 28 l 295 0 l 102 0 l 102 22 q 137 40 128 28 q 145 80 145 52 m 106 1152 q 151 1133 133 1152 q 170 1088 170 1115 q 151 1044 170 1062 q 106 1025 132 1025 q 62 1044 81 1025 q 43 1088 43 1062 q 62 1133 43 1115 q 106 1152 80 1151 m 290 1152 q 334 1133 316 1152 q 353 1088 353 1115 q 334 1044 353 1062 q 290 1025 315 1025 q 245 1044 263 1025 q 227 1088 227 1062 q 244 1133 227 1115 q 290 1152 262 1151 z "},"Ì":{"ha":397,"x_min":35,"x_max":296,"o":"m 146 80 l 146 846 q 137 886 146 874 q 102 904 128 898 l 102 926 l 296 926 l 296 904 q 261 886 270 897 q 252 846 252 874 l 252 80 q 261 40 252 52 q 296 22 269 28 l 296 0 l 102 0 l 102 22 q 137 40 129 28 q 146 80 146 52 m 35 1197 l 192 1197 l 192 1179 q 174 1164 174 1177 q 176 1156 174 1160 l 228 1045 q 241 1025 235 1029 q 261 1021 246 1021 l 261 1002 l 144 1002 l 144 1021 q 147 1021 146 1021 q 161 1031 161 1021 q 157 1043 161 1037 l 69 1160 q 35 1179 58 1177 l 35 1197 z "},"Ó":{"ha":1265,"x_min":79,"x_max":1186,"o":"m 631 942 q 1025 814 876 942 q 1152 640 1109 743 q 1186 457 1186 555 q 1111 210 1186 325 q 881 26 1028 82 q 632 -16 771 -16 q 239 112 389 -16 q 113 286 156 184 q 79 463 79 370 q 153 717 79 601 q 384 900 235 842 q 631 942 488 940 m 631 849 q 301 732 422 849 q 190 463 190 625 q 301 193 190 300 q 632 77 422 77 q 964 193 843 77 q 1075 458 1075 300 q 964 732 1075 628 q 822 820 898 795 q 631 849 738 848 m 792 1197 l 792 1179 q 758 1160 769 1177 l 670 1043 q 666 1031 666 1037 q 680 1021 666 1021 q 683 1021 681 1021 l 683 1002 l 566 1002 l 566 1021 q 586 1025 581 1021 q 600 1045 591 1029 l 651 1156 q 653 1164 653 1160 q 635 1179 653 1177 l 635 1197 l 792 1197 z "},"Ô":{"ha":1265,"x_min":79,"x_max":1186,"o":"m 631 942 q 1025 814 876 942 q 1152 640 1109 743 q 1186 457 1186 555 q 1111 210 1186 325 q 881 26 1028 82 q 632 -16 771 -16 q 239 112 389 -16 q 113 286 156 184 q 79 463 79 370 q 153 717 79 601 q 384 900 235 842 q 631 942 488 940 m 631 849 q 301 732 422 849 q 190 463 190 625 q 301 193 190 300 q 632 77 422 77 q 964 193 843 77 q 1075 458 1075 300 q 964 732 1075 628 q 822 820 898 795 q 631 849 738 848 m 555 1002 l 413 1002 l 413 1021 q 438 1026 431 1021 q 463 1049 446 1030 l 562 1150 q 570 1167 570 1158 q 546 1179 570 1179 l 546 1197 l 724 1197 l 724 1179 q 701 1166 701 1176 q 713 1147 701 1159 l 828 1034 q 861 1021 840 1021 l 861 1002 l 701 1002 l 701 1021 q 724 1031 724 1023 q 712 1046 724 1035 l 628 1135 l 541 1044 q 534 1032 534 1038 q 555 1021 534 1022 l 555 1002 z "},"Ò":{"ha":1265,"x_min":79,"x_max":1186,"o":"m 631 942 q 1025 814 876 942 q 1152 640 1109 743 q 1186 457 1186 555 q 1111 210 1186 325 q 881 26 1028 82 q 632 -16 771 -16 q 239 112 389 -16 q 113 286 156 184 q 79 463 79 370 q 153 717 79 601 q 384 900 235 842 q 631 942 488 940 m 631 849 q 301 732 422 849 q 190 463 190 625 q 301 193 190 300 q 632 77 422 77 q 964 193 843 77 q 1075 458 1075 300 q 964 732 1075 628 q 822 820 898 795 q 631 849 738 848 m 477 1197 l 635 1197 l 635 1179 q 616 1164 616 1177 q 618 1156 616 1160 l 671 1045 q 684 1025 678 1029 q 704 1021 689 1021 l 704 1002 l 587 1002 l 587 1021 q 590 1021 589 1021 q 604 1031 604 1021 q 600 1043 604 1037 l 512 1160 q 477 1179 500 1177 l 477 1197 z "},"Ú":{"ha":1097,"x_min":83,"x_max":1013,"o":"m 233 846 l 233 334 q 243 206 233 243 q 282 142 252 169 q 553 77 355 77 q 836 153 768 77 q 865 215 858 179 q 873 334 873 250 l 873 846 q 864 885 873 873 q 829 904 855 897 l 829 926 l 1013 926 l 1013 904 q 979 886 987 898 q 970 846 970 874 l 970 313 q 951 163 970 214 q 818 27 916 71 q 549 -16 721 -16 q 196 83 291 -16 q 142 175 157 123 q 127 313 127 226 l 127 846 q 118 886 127 874 q 83 904 109 898 l 83 926 l 277 926 l 277 904 q 242 885 251 897 q 233 846 233 873 m 699 1197 l 699 1179 q 664 1160 675 1177 l 576 1043 q 572 1031 572 1037 q 587 1021 572 1021 q 589 1021 587 1021 l 589 1002 l 472 1002 l 472 1021 q 492 1025 487 1021 q 506 1045 498 1029 l 557 1156 q 559 1164 559 1160 q 541 1179 559 1177 l 541 1197 l 699 1197 z "},"Û":{"ha":1097,"x_min":83,"x_max":1013,"o":"m 233 846 l 233 334 q 243 206 233 243 q 282 142 252 169 q 553 77 355 77 q 836 153 768 77 q 865 215 858 179 q 873 334 873 250 l 873 846 q 864 885 873 873 q 829 904 855 897 l 829 926 l 1013 926 l 1013 904 q 979 886 987 898 q 970 846 970 874 l 970 313 q 951 163 970 214 q 818 27 916 71 q 549 -16 721 -16 q 196 83 291 -16 q 142 175 157 123 q 127 313 127 226 l 127 846 q 118 886 127 874 q 83 904 109 898 l 83 926 l 277 926 l 277 904 q 242 885 251 897 q 233 846 233 873 m 467 1002 l 325 1002 l 325 1021 q 350 1026 342 1021 q 374 1049 357 1030 l 473 1150 q 481 1167 481 1158 q 458 1179 481 1179 l 458 1197 l 635 1197 l 635 1179 q 613 1166 613 1176 q 625 1147 613 1159 l 740 1034 q 772 1021 752 1021 l 772 1002 l 613 1002 l 613 1021 q 635 1031 635 1023 q 624 1046 635 1035 l 540 1135 l 453 1044 q 446 1032 446 1038 q 467 1021 446 1022 l 467 1002 z "},"Ù":{"ha":1097,"x_min":83,"x_max":1013,"o":"m 233 846 l 233 334 q 243 206 233 243 q 282 142 252 169 q 553 77 355 77 q 836 153 768 77 q 865 215 858 179 q 873 334 873 250 l 873 846 q 864 885 873 873 q 829 904 855 897 l 829 926 l 1013 926 l 1013 904 q 979 886 987 898 q 970 846 970 874 l 970 313 q 951 163 970 214 q 818 27 916 71 q 549 -16 721 -16 q 196 83 291 -16 q 142 175 157 123 q 127 313 127 226 l 127 846 q 118 886 127 874 q 83 904 109 898 l 83 926 l 277 926 l 277 904 q 242 885 251 897 q 233 846 233 873 m 398 1197 l 555 1197 l 555 1179 q 537 1164 537 1177 q 539 1156 537 1160 l 591 1045 q 604 1025 599 1029 q 625 1021 610 1021 l 625 1002 l 507 1002 l 507 1021 q 511 1021 509 1021 q 524 1031 524 1021 q 520 1043 524 1037 l 433 1160 q 398 1179 421 1177 l 398 1197 z "},"ı":{"ha":347,"x_min":81,"x_max":265,"o":"m 125 77 l 125 683 q 116 723 125 711 q 81 741 107 734 l 81 760 l 265 760 l 265 741 q 231 723 239 734 q 222 683 222 711 l 222 77 q 231 37 222 49 q 265 18 239 25 l 265 0 l 81 0 l 81 18 q 116 37 107 25 q 125 77 125 49 z "},"ˆ":{"ha":694,"x_min":123,"x_max":571,"o":"m 266 845 l 123 845 l 123 863 q 149 868 141 864 q 173 892 156 873 l 272 993 q 280 1010 280 1001 q 256 1021 280 1021 l 256 1040 l 434 1040 l 434 1021 q 412 1009 412 1019 q 424 990 412 1002 l 538 877 q 571 863 551 864 l 571 845 l 412 845 l 412 863 q 434 873 434 865 q 422 889 434 878 l 338 978 l 252 887 q 245 876 245 880 q 266 863 245 865 l 266 845 z "},"˜":{"ha":694,"x_min":126,"x_max":568,"o":"m 480 1018 l 568 961 l 559 945 q 544 949 549 949 q 527 937 536 949 q 433 872 484 872 q 380 883 410 872 l 283 919 q 256 924 270 924 q 230 912 242 924 q 217 889 217 901 q 226 870 217 882 l 216 858 l 126 919 l 135 931 q 149 928 144 928 q 173 944 161 928 q 273 1001 212 1001 q 313 993 292 1001 l 411 956 q 443 949 428 949 q 468 960 456 949 q 480 984 480 971 q 469 1005 480 994 l 480 1018 z "},"ˉ":{"ha":694,"x_min":165,"x_max":528,"o":"m 528 1002 l 528 859 l 513 859 q 498 887 508 880 q 465 894 488 894 l 229 894 q 196 887 206 894 q 181 859 186 880 l 165 859 l 165 1002 l 181 1002 q 196 975 186 981 q 229 968 206 968 l 465 968 q 498 975 488 968 q 513 1002 508 981 l 528 1002 z "},"˘":{"ha":694,"x_min":143,"x_max":551,"o":"m 143 1020 l 143 1038 l 260 1038 l 260 1020 q 242 1017 246 1019 q 239 1005 239 1014 q 260 955 239 979 q 349 920 290 920 q 435 955 406 920 q 456 1005 456 979 q 452 1017 456 1014 q 435 1020 448 1019 l 435 1038 l 551 1038 l 551 1020 q 527 1005 528 1020 q 498 919 522 954 q 347 845 448 845 q 223 888 271 845 q 168 1005 175 930 q 143 1020 166 1020 z "},"˙":{"ha":694,"x_min":283,"x_max":410,"o":"m 347 994 q 391 976 373 994 q 410 930 410 958 q 391 886 410 905 q 347 868 372 868 q 302 887 321 868 q 283 931 283 905 q 302 976 283 958 q 347 994 320 994 z "},"˚":{"ha":694,"x_min":214,"x_max":480,"o":"m 347 1054 q 441 1021 403 1054 q 480 939 480 987 q 441 860 480 893 q 347 826 401 826 q 254 860 292 826 q 214 941 214 893 q 252 1021 214 988 q 347 1054 290 1053 m 347 999 q 298 982 318 999 q 279 940 279 966 q 299 898 279 916 q 347 881 319 881 q 395 898 375 881 q 416 939 416 916 q 396 982 416 965 q 347 999 377 999 z "},"¸":{"ha":694,"x_min":231,"x_max":465,"o":"m 277 -137 l 311 -66 q 338 -65 326 -65 q 431 -90 397 -65 q 465 -158 465 -115 q 431 -232 465 -204 q 335 -260 397 -260 q 231 -244 274 -260 l 241 -220 q 295 -229 270 -229 q 372 -173 372 -229 q 330 -127 372 -127 q 290 -145 307 -127 l 277 -137 z "},"˝":{"ha":694,"x_min":203,"x_max":640,"o":"m 424 1040 l 424 1021 q 389 1003 401 1019 l 302 886 q 298 873 298 880 q 312 863 298 863 q 315 863 313 863 l 315 845 l 203 845 l 203 863 q 224 867 218 863 q 237 888 229 871 l 290 998 q 291 1006 291 1002 q 273 1021 291 1019 l 273 1040 l 424 1040 m 640 1040 l 640 1021 q 605 1003 616 1019 l 517 886 q 513 873 513 880 q 528 863 513 863 q 530 863 528 863 l 530 845 l 419 845 l 419 863 q 439 867 434 863 q 453 888 445 871 l 505 998 q 507 1006 507 1002 q 488 1021 507 1019 l 488 1040 l 640 1040 z "},"˛":{"ha":694,"x_min":488,"x_max":720,"o":"m 594 0 l 656 0 q 602 -51 622 -21 q 582 -110 582 -80 q 605 -157 582 -139 q 665 -175 627 -175 q 709 -168 680 -175 l 720 -195 q 628 -209 667 -209 q 488 -114 488 -209 q 511 -51 488 -76 q 594 0 534 -26 z "},"ˇ":{"ha":694,"x_min":123,"x_max":571,"o":"m 429 1040 l 571 1040 l 571 1021 q 546 1016 553 1021 q 522 993 538 1012 l 422 892 q 414 875 414 884 q 438 863 414 863 l 438 845 l 260 845 l 260 863 q 283 876 283 865 q 271 895 283 883 l 156 1008 q 123 1021 144 1021 l 123 1040 l 283 1040 l 283 1021 q 260 1011 260 1019 q 272 996 260 1007 l 356 907 l 443 998 q 450 1009 450 1004 q 429 1021 450 1020 l 429 1040 z "},"¦":{"ha":694,"x_min":294,"x_max":399,"o":"m 294 926 l 399 926 l 399 463 l 294 463 l 294 926 m 294 213 l 399 213 l 399 -231 l 294 -231 l 294 213 z "},"­":{"ha":276,"x_min":0,"x_max":276,"o":"m 276 467 l 276 292 l 260 292 q 247 327 254 317 q 224 336 239 336 l 52 336 q 29 327 37 336 q 16 292 21 317 l 0 292 l 0 467 l 16 467 q 29 433 21 442 q 52 424 37 424 l 224 424 q 247 433 239 424 q 260 467 255 443 l 276 467 z "},"¯":{"ha":694,"x_min":0,"x_max":694,"o":"m 0 1095 l 694 1095 l 694 1025 l 0 1025 l 0 1095 z "},"²":{"ha":630,"x_min":61,"x_max":567,"o":"m 153 745 l 61 831 l 77 846 q 102 835 94 835 q 111 841 104 835 q 212 910 153 886 q 336 935 271 935 q 484 890 425 935 q 544 771 544 844 q 505 669 544 710 q 358 577 465 628 q 225 503 264 532 q 170 431 187 473 l 513 431 q 536 436 530 431 q 545 457 542 441 l 567 457 l 567 345 l 545 345 q 536 366 542 361 q 513 370 530 370 l 125 370 q 103 366 109 370 q 94 345 98 361 l 72 345 q 333 634 69 519 q 441 698 412 670 q 470 766 470 726 q 430 842 470 812 q 328 871 390 871 q 189 822 250 871 q 155 783 155 794 q 168 760 155 774 l 153 745 z "},"³":{"ha":629,"x_min":43,"x_max":568,"o":"m 132 755 l 51 844 l 66 859 q 86 847 81 847 q 97 852 89 847 q 213 918 165 900 q 323 935 260 935 q 484 888 420 935 q 543 781 543 845 q 523 716 543 743 q 460 671 503 690 q 538 622 509 658 q 568 536 568 585 q 501 412 568 459 q 319 361 431 361 q 92 422 205 361 q 81 427 83 427 q 61 414 74 427 l 43 425 l 108 529 l 127 519 q 121 501 121 505 q 133 485 121 495 q 323 425 203 425 q 456 462 409 425 q 493 537 493 491 q 453 611 493 585 q 338 637 413 637 l 286 637 q 263 632 269 637 q 254 611 257 627 l 232 611 l 232 724 l 254 724 q 263 703 257 707 q 286 698 269 698 l 329 698 q 437 720 404 698 q 469 777 469 741 q 426 845 469 818 q 318 871 383 871 q 168 821 232 871 q 139 788 139 798 q 147 769 139 785 l 132 755 z "},"¹":{"ha":629,"x_min":205,"x_max":397,"o":"m 273 370 l 273 392 q 294 401 290 396 q 299 422 299 407 l 299 814 q 243 794 265 797 q 232 791 233 793 q 227 773 230 789 l 205 773 l 205 885 l 227 885 q 229 873 228 876 l 230 866 q 237 861 231 861 q 277 873 254 861 q 300 895 300 886 q 277 904 300 900 l 277 926 l 397 926 l 397 904 q 375 895 380 901 q 370 874 370 890 l 370 422 q 375 401 370 407 q 397 392 380 396 l 397 370 l 273 370 z "},"¼":{"ha":1604,"x_min":205,"x_max":1558,"o":"m 273 370 l 273 392 q 294 401 290 396 q 299 422 299 407 l 299 814 q 243 794 265 797 q 232 791 233 793 q 227 773 230 789 l 205 773 l 205 885 l 227 885 q 231 864 229 867 q 237 861 232 861 q 277 873 254 861 q 300 895 300 886 q 277 904 300 900 l 277 926 l 397 926 l 397 904 q 375 895 380 901 q 370 874 370 890 l 370 422 q 375 401 370 407 q 397 392 380 396 l 397 370 l 273 370 m 898 926 l 1113 926 l 1113 907 q 1025 823 1067 904 l 686 103 q 664 47 664 56 q 708 19 664 23 l 708 0 l 490 0 l 490 19 q 578 103 536 22 l 923 823 q 945 879 945 868 q 898 907 945 904 l 898 926 m 1453 176 l 1504 176 q 1526 180 1520 176 q 1536 201 1532 185 l 1558 201 l 1558 89 l 1536 89 q 1527 110 1533 105 q 1504 115 1520 115 l 1453 115 l 1453 52 q 1458 31 1453 37 q 1480 22 1463 26 l 1480 0 l 1356 0 l 1356 22 q 1377 31 1373 26 q 1382 52 1382 37 l 1382 115 l 1074 115 q 1051 110 1057 115 q 1042 89 1045 105 l 1020 89 l 1020 161 l 1339 520 q 1343 526 1343 524 q 1322 534 1343 528 l 1322 555 l 1480 555 l 1480 534 q 1458 525 1463 530 q 1453 503 1453 519 l 1453 176 m 1382 176 l 1382 477 l 1118 176 l 1382 176 z "},"½":{"ha":1604,"x_min":205,"x_max":1541,"o":"m 273 370 l 273 392 q 294 401 289 396 q 299 422 299 407 l 299 814 q 243 794 265 797 q 232 791 233 793 q 227 773 230 789 l 205 773 l 205 885 l 227 885 q 231 864 229 867 q 237 861 232 861 q 277 873 254 861 q 300 895 300 886 q 277 904 300 900 l 277 926 l 397 926 l 397 904 q 375 895 380 901 q 370 874 370 890 l 370 422 q 375 401 370 407 q 397 392 380 396 l 397 370 l 273 370 m 898 926 l 1113 926 l 1113 907 q 1025 823 1067 904 l 686 103 q 664 47 664 56 q 708 19 664 23 l 708 0 l 490 0 l 490 19 q 578 103 536 22 l 923 823 q 945 879 945 868 q 898 907 945 904 l 898 926 m 1126 375 l 1035 461 l 1050 476 q 1076 465 1068 465 q 1084 471 1078 465 q 1185 540 1126 515 q 1310 565 1244 565 q 1457 520 1399 565 q 1518 401 1518 473 q 1478 299 1518 340 q 1332 207 1439 258 q 1199 133 1238 162 q 1143 61 1161 103 l 1487 61 q 1510 66 1503 61 q 1519 87 1516 71 l 1541 87 l 1541 -26 l 1519 -26 q 1510 -5 1516 -9 q 1487 0 1503 0 l 1099 0 q 1077 -5 1083 0 q 1067 -26 1072 -9 l 1046 -26 q 1306 264 1043 149 q 1415 328 1385 300 q 1444 396 1444 356 q 1404 472 1444 442 q 1301 501 1364 501 q 1163 452 1223 501 q 1129 413 1129 424 q 1142 391 1129 404 l 1126 375 z "},"¾":{"ha":1604,"x_min":43,"x_max":1557,"o":"m 132 755 l 51 844 l 66 859 q 86 847 81 847 q 113 864 90 847 q 323 935 216 935 q 484 888 420 935 q 543 781 543 845 q 523 716 543 743 q 460 671 503 690 q 539 621 511 656 q 568 536 568 586 q 501 412 568 459 q 319 361 431 361 q 92 422 205 361 q 81 427 83 427 q 61 414 75 427 l 43 425 l 108 529 l 127 519 q 121 501 121 505 q 133 485 121 495 q 323 425 203 425 q 456 462 409 425 q 493 537 493 491 q 453 611 493 585 q 338 637 413 637 l 286 637 q 263 632 269 637 q 254 611 257 627 l 232 611 l 232 724 l 254 724 q 263 703 257 707 q 286 698 269 698 l 329 698 q 437 720 404 698 q 469 777 469 741 q 426 845 469 819 q 318 871 383 871 q 168 821 232 871 q 139 788 139 798 q 147 770 139 785 l 132 755 m 898 926 l 1113 926 l 1113 907 q 1025 823 1067 904 l 686 103 q 664 47 664 56 q 708 19 664 23 l 708 0 l 490 0 l 490 19 q 578 103 536 22 l 923 823 q 945 879 945 868 q 898 907 945 904 l 898 926 m 1453 176 l 1503 176 q 1526 180 1520 176 q 1535 201 1531 185 l 1557 201 l 1557 89 l 1535 89 q 1526 110 1532 105 q 1503 115 1520 115 l 1453 115 l 1453 52 q 1457 31 1453 37 q 1479 22 1462 26 l 1479 0 l 1355 0 l 1355 22 q 1377 31 1372 26 q 1381 52 1381 37 l 1381 115 l 1074 115 q 1051 110 1057 115 q 1042 89 1045 105 l 1020 89 l 1020 161 l 1339 520 q 1342 526 1342 524 q 1322 534 1342 528 l 1322 555 l 1479 555 l 1479 534 q 1458 525 1463 530 q 1453 503 1453 519 l 1453 176 m 1381 176 l 1381 477 l 1118 176 l 1381 176 z "},"Ð":{"ha":1143,"x_min":25,"x_max":1065,"o":"m 25 391 l 25 562 l 50 562 q 71 527 58 536 q 107 517 83 517 l 146 517 l 146 855 q 136 886 146 876 q 102 904 127 897 l 102 926 l 591 926 q 845 880 757 926 q 1015 703 956 822 q 1065 463 1065 597 q 997 191 1065 305 q 841 44 935 89 q 591 0 746 0 l 102 0 l 102 22 q 136 39 127 28 q 146 71 146 50 l 146 434 l 107 434 q 71 425 83 434 q 50 391 58 416 l 25 391 m 252 517 l 494 517 q 531 527 519 517 q 551 562 543 536 l 576 562 l 576 391 l 551 391 q 531 425 543 416 q 494 434 519 434 l 252 434 l 252 88 l 587 88 q 805 134 734 88 q 928 300 889 188 q 954 463 954 374 q 872 730 954 625 q 762 813 827 789 q 587 838 696 838 l 252 838 l 252 517 z "},"×":{"ha":1065,"x_min":182,"x_max":883,"o":"m 306 113 l 182 236 l 199 254 q 221 251 214 251 q 311 303 258 251 l 470 463 l 311 622 q 221 673 260 673 q 201 671 214 673 l 182 690 l 306 814 l 324 795 q 321 773 321 781 q 374 684 321 736 l 532 525 l 691 684 q 743 774 743 736 q 740 794 743 782 l 760 814 l 883 690 l 864 671 q 842 673 850 673 q 753 622 805 673 l 595 463 l 755 302 q 844 251 806 251 q 865 254 852 251 l 883 236 l 759 113 l 741 130 q 744 152 744 144 q 692 241 744 189 l 532 401 l 372 241 q 321 152 321 189 q 323 130 321 145 l 306 113 z "},"Ý":{"ha":904,"x_min":-10,"x_max":913,"o":"m 509 410 l 509 80 q 518 40 509 52 q 553 22 527 28 l 553 0 l 359 0 l 359 22 q 394 40 385 28 q 403 80 403 52 l 403 410 l 104 802 q 36 882 55 865 q -10 904 18 899 l -10 926 l 224 926 l 224 904 q 193 878 193 896 q 224 812 193 855 l 460 492 l 694 823 q 724 880 724 865 q 694 904 724 897 l 694 926 l 913 926 l 913 904 q 856 874 880 898 q 793 802 807 823 l 509 410 m 611 1197 l 611 1179 q 576 1160 588 1177 l 489 1043 q 485 1031 485 1037 q 499 1021 485 1021 q 502 1021 500 1021 l 502 1002 l 385 1002 l 385 1021 q 405 1025 399 1021 q 418 1045 410 1029 l 470 1156 q 472 1164 472 1160 q 454 1179 472 1177 l 454 1197 l 611 1197 z "},"Þ":{"ha":948,"x_min":102,"x_max":910,"o":"m 252 760 l 542 760 q 702 749 645 760 q 803 710 758 738 q 878 631 850 681 q 910 506 910 576 q 852 343 910 411 q 738 270 807 291 q 542 250 669 250 l 252 250 l 252 80 q 260 40 252 52 q 295 22 269 28 l 295 0 l 102 0 l 102 22 q 137 40 128 28 q 145 80 145 52 l 145 846 q 136 886 145 874 q 102 904 127 898 l 102 926 l 295 926 l 295 904 q 260 886 269 897 q 252 846 252 874 l 252 760 m 252 338 l 553 338 q 668 344 630 338 q 735 368 705 350 q 804 505 804 408 q 735 642 804 601 q 668 665 705 659 q 553 671 630 671 l 252 671 l 252 338 z "},"ð":{"ha":950,"x_min":18,"x_max":887,"o":"m 125 357 l 70 357 q 47 347 55 357 q 34 313 39 338 l 18 313 l 18 469 l 34 469 q 47 435 39 444 q 70 426 55 426 l 125 426 l 125 683 q 116 723 125 711 q 81 741 107 734 l 81 760 l 465 760 q 694 724 619 760 q 841 573 788 678 q 887 380 887 482 q 826 159 887 260 q 692 36 773 72 q 465 0 611 0 l 81 0 l 81 18 q 116 37 107 25 q 125 77 125 49 l 125 357 m 222 686 l 222 426 l 420 426 q 443 435 435 426 q 456 469 450 445 l 472 469 l 472 313 l 456 313 q 443 347 450 338 q 420 357 435 357 l 222 357 l 222 74 l 460 74 q 657 111 595 74 q 760 237 727 151 q 785 380 785 301 q 714 602 785 518 q 617 667 675 648 q 460 686 559 686 l 222 686 z "},"ý":{"ha":755,"x_min":-8,"x_max":762,"o":"m 434 335 l 434 77 q 443 37 434 49 q 477 18 451 25 l 477 0 l 294 0 l 294 18 q 328 37 319 25 q 337 77 337 49 l 337 335 l 103 640 q 40 715 60 696 q -8 741 20 733 l -8 760 l 206 760 l 206 741 q 176 715 176 736 q 195 673 176 696 l 395 410 l 576 672 q 595 714 595 700 q 564 741 595 737 l 564 760 l 762 760 l 762 741 q 706 706 732 731 q 635 619 680 682 l 434 335 m 542 1040 l 542 1021 q 507 1003 519 1019 l 420 886 q 416 873 416 880 q 430 863 416 863 q 433 863 431 863 l 433 845 l 315 845 l 315 863 q 336 867 330 863 q 349 888 341 871 l 401 998 q 403 1006 403 1002 q 385 1021 403 1019 l 385 1040 l 542 1040 z "},"þ":{"ha":787,"x_min":81,"x_max":749,"o":"m 222 625 l 456 625 q 583 618 539 625 q 661 589 626 610 q 726 518 702 565 q 749 416 749 472 q 726 314 749 359 q 660 243 703 269 q 582 214 625 222 q 456 207 539 207 l 222 207 l 222 77 q 230 37 222 48 q 265 18 239 25 l 265 0 l 81 0 l 81 18 q 116 37 107 25 q 125 77 125 49 l 125 683 q 116 723 125 711 q 81 741 107 734 l 81 760 l 265 760 l 265 741 q 231 723 239 734 q 222 683 222 711 l 222 625 m 222 281 l 443 281 q 550 287 515 281 q 609 309 585 292 q 656 416 656 340 q 609 524 656 492 q 550 546 585 540 q 443 551 515 551 l 222 551 l 222 281 z "},"Š":{"ha":1039,"x_min":56,"x_max":983,"o":"m 970 869 l 873 694 l 854 704 q 866 742 866 734 q 816 786 866 762 q 527 850 680 850 q 309 803 401 850 q 238 743 264 780 q 212 666 212 707 q 232 602 212 632 q 286 557 252 572 q 372 533 322 540 q 534 524 422 527 q 758 509 690 519 q 868 475 825 499 q 983 279 983 410 q 879 73 983 153 q 559 -16 763 -16 q 355 7 442 -16 q 146 95 267 31 q 106 111 112 111 q 74 86 96 111 l 56 98 l 157 268 l 176 257 q 163 220 163 230 q 250 153 163 199 q 400 95 328 113 q 557 77 473 77 q 818 152 729 77 q 877 271 877 202 q 776 397 877 362 q 708 411 743 408 q 510 420 673 414 q 327 438 393 425 q 210 480 261 451 q 133 556 161 507 q 105 663 105 605 q 178 831 105 761 q 328 912 233 883 q 538 942 424 942 q 710 924 631 942 q 890 861 790 905 q 918 851 913 851 q 951 878 930 851 l 970 869 m 624 1197 l 766 1197 l 766 1179 q 741 1174 749 1178 q 717 1150 734 1169 l 618 1049 q 610 1032 610 1041 q 633 1021 610 1021 l 633 1002 l 456 1002 l 456 1021 q 478 1033 478 1023 q 466 1053 478 1040 l 351 1165 q 319 1179 339 1178 l 319 1197 l 478 1197 l 478 1179 q 456 1168 456 1177 q 467 1153 456 1164 l 551 1064 l 638 1155 q 645 1166 645 1162 q 624 1179 645 1177 l 624 1197 z "},"š":{"ha":860,"x_min":45,"x_max":816,"o":"m 804 720 l 729 572 l 713 581 q 716 608 716 600 q 672 647 716 624 q 444 697 578 697 q 261 657 336 697 q 186 544 186 616 q 205 485 186 511 q 256 448 224 459 q 325 434 288 437 q 485 426 362 431 q 640 413 587 422 q 730 382 692 404 q 793 318 770 360 q 816 225 816 275 q 730 58 816 120 q 456 -16 627 -16 q 279 9 372 -16 q 107 80 186 35 q 91 87 96 87 q 60 63 81 87 l 45 73 l 131 218 l 147 208 q 144 197 145 200 q 141 180 141 186 q 210 124 141 161 q 452 62 327 62 q 643 102 567 62 q 701 153 680 121 q 723 220 723 185 q 705 279 723 253 q 656 315 686 304 q 594 329 629 325 q 465 336 560 333 q 305 348 353 341 q 214 370 257 354 q 127 433 160 389 q 94 541 94 479 q 193 712 94 650 q 450 776 294 776 q 736 712 592 776 q 761 703 758 703 q 787 728 772 703 l 804 720 m 542 1040 l 684 1040 l 684 1021 q 659 1016 667 1021 q 635 993 652 1012 l 536 892 q 528 875 528 884 q 551 863 528 863 l 551 845 l 374 845 l 374 863 q 396 876 396 865 q 384 895 396 883 l 269 1008 q 237 1021 257 1021 l 237 1040 l 396 1040 l 396 1021 q 374 1011 374 1019 q 385 996 374 1007 l 469 907 l 556 998 q 563 1009 563 1004 q 542 1021 563 1020 l 542 1040 z "}}}
